<svg width="41" height="40" viewBox="0 0 41 40" fill="none" xmlns="http://www.w3.org/2000/svg">
<path d="M20.4987 12.2953C18.4547 12.2953 16.4945 13.1072 15.0492 14.5525C13.6039 15.9978 12.792 17.958 12.792 20.002C12.792 22.0459 13.6039 24.0061 15.0492 25.4514C16.4945 26.8967 18.4547 27.7086 20.4987 27.7086C22.5426 27.7086 24.5028 26.8967 25.9481 25.4514C27.3934 24.0061 28.2053 22.0459 28.2053 20.002C28.2053 17.958 27.3934 15.9978 25.9481 14.5525C24.5028 13.1072 22.5426 12.2953 20.4987 12.2953V12.2953ZM20.4987 25.007C19.1708 25.007 17.8973 24.4795 16.9584 23.5405C16.0195 22.6016 15.492 21.3281 15.492 20.0003C15.492 18.6724 16.0195 17.399 16.9584 16.46C17.8973 15.5211 19.1708 14.9936 20.4987 14.9936C21.8265 14.9936 23.1 15.5211 24.0389 16.46C24.9778 17.399 25.5053 18.6724 25.5053 20.0003C25.5053 21.3281 24.9778 22.6016 24.0389 23.5405C23.1 24.4795 21.8265 25.007 20.4987 25.007V25.007Z" fill="#094900"/>
<path d="M28.5096 13.8082C29.5018 13.8082 30.3062 13.0038 30.3062 12.0115C30.3062 11.0192 29.5018 10.2148 28.5096 10.2148C27.5173 10.2148 26.7129 11.0192 26.7129 12.0115C26.7129 13.0038 27.5173 13.8082 28.5096 13.8082Z" fill="#094900"/>
<path d="M34.7213 10.185C34.3354 9.1886 33.7458 8.28377 32.9901 7.5284C32.2345 6.77303 31.3294 6.18375 30.3329 5.7983C29.1668 5.36056 27.9349 5.12387 26.6896 5.0983C25.0846 5.0283 24.5763 5.0083 20.5063 5.0083C16.4363 5.0083 15.9146 5.0083 14.3229 5.0983C13.0786 5.12256 11.8475 5.3593 10.6829 5.7983C9.68616 6.1833 8.78087 6.77242 8.02515 7.52785C7.26944 8.28328 6.67998 9.18834 6.2946 10.185C5.85677 11.351 5.62062 12.583 5.59626 13.8283C5.5246 15.4316 5.50293 15.94 5.50293 20.0116C5.50293 24.0816 5.50293 24.6 5.59626 26.195C5.62126 27.4416 5.85626 28.6716 6.2946 29.84C6.68106 30.8362 7.27109 31.7409 8.02699 32.4963C8.78289 33.2516 9.68804 33.8409 10.6846 34.2266C11.847 34.682 13.0785 34.9356 14.3263 34.9766C15.9313 35.0466 16.4396 35.0683 20.5096 35.0683C24.5796 35.0683 25.1013 35.0683 26.6929 34.9766C27.9381 34.9513 29.17 34.7152 30.3363 34.2783C31.3325 33.8919 32.2373 33.3022 32.9929 32.5466C33.7485 31.791 34.3382 30.8862 34.7246 29.89C35.1629 28.7233 35.3979 27.4933 35.4229 26.2466C35.4946 24.6433 35.5163 24.135 35.5163 20.0633C35.5163 15.9916 35.5163 15.475 35.4229 13.88C35.4035 12.6171 35.1661 11.367 34.7213 10.185V10.185ZM32.6913 26.0716C32.6805 27.0321 32.5052 27.9837 32.1729 28.885C31.9226 29.5331 31.5395 30.1216 31.048 30.6128C30.5566 31.1039 29.9679 31.4867 29.3196 31.7366C28.4283 32.0674 27.4869 32.2427 26.5363 32.255C24.9529 32.3283 24.5063 32.3466 20.4463 32.3466C16.3829 32.3466 15.9679 32.3466 14.3546 32.255C13.4045 32.2433 12.4635 32.068 11.5729 31.7366C10.9224 31.4883 10.3313 31.1061 9.83775 30.6149C9.34423 30.1237 8.95932 29.5343 8.70793 28.885C8.38034 27.9934 8.20511 27.053 8.1896 26.1033C8.11793 24.52 8.10126 24.0733 8.10126 20.0133C8.10126 15.9516 8.10126 15.5366 8.1896 13.9216C8.20037 12.9617 8.37569 12.0107 8.70793 11.11C9.21626 9.79497 10.2579 8.75997 11.5729 8.25663C12.4639 7.92687 13.4046 7.75157 14.3546 7.7383C15.9396 7.66663 16.3846 7.64663 20.4463 7.64663C24.5079 7.64663 24.9246 7.64663 26.5363 7.7383C27.4869 7.74974 28.4285 7.92509 29.3196 8.25663C29.9678 8.50709 30.5565 8.8903 31.0479 9.38168C31.5393 9.87306 31.9225 10.4618 32.1729 11.11C32.5005 12.0015 32.6757 12.9419 32.6913 13.8916C32.7629 15.4766 32.7813 15.9216 32.7813 19.9833C32.7813 24.0433 32.7813 24.48 32.7096 26.0733H32.6913V26.0716Z" fill="#094900"/>
</svg>
