<svg width="42" height="43" viewBox="0 0 42 43" fill="none" xmlns="http://www.w3.org/2000/svg">
<path d="M21.0005 13.4108C18.8546 13.4108 16.7965 14.2632 15.2791 15.7807C13.7617 17.2981 12.9092 19.3561 12.9092 21.5021C12.9092 23.648 13.7617 25.7061 15.2791 27.2235C16.7965 28.7409 18.8546 29.5934 21.0005 29.5934C23.1465 29.5934 25.2045 28.7409 26.7219 27.2235C28.2394 25.7061 29.0918 23.648 29.0918 21.5021C29.0918 19.3561 28.2394 17.2981 26.7219 15.7807C25.2045 14.2632 23.1465 13.4108 21.0005 13.4108V13.4108ZM21.0005 26.7569C19.6064 26.7569 18.2694 26.2031 17.2836 25.2173C16.2978 24.2315 15.7439 22.8945 15.7439 21.5003C15.7439 20.1062 16.2978 18.7692 17.2836 17.7834C18.2694 16.7976 19.6064 16.2438 21.0005 16.2438C22.3946 16.2438 23.7317 16.7976 24.7175 17.7834C25.7033 18.7692 26.2571 20.1062 26.2571 21.5003C26.2571 22.8945 25.7033 24.2315 24.7175 25.2173C23.7317 26.2031 22.3946 26.7569 21.0005 26.7569V26.7569Z" fill="#DBDBDB"/>
<path d="M29.4117 14.9991C30.4535 14.9991 31.2981 14.1546 31.2981 13.1128C31.2981 12.071 30.4535 11.2264 29.4117 11.2264C28.3699 11.2264 27.5254 12.071 27.5254 13.1128C27.5254 14.1546 28.3699 14.9991 29.4117 14.9991Z" fill="#DBDBDB"/>
<path d="M35.9335 11.1949C35.5284 10.1488 34.9094 9.19885 34.116 8.40577C33.3226 7.61269 32.3724 6.99401 31.3262 6.58932C30.1019 6.12973 28.8084 5.88122 27.501 5.85438C25.8159 5.78089 25.2822 5.75989 21.009 5.75989C16.7359 5.75989 16.1882 5.75989 14.5171 5.85438C13.2106 5.87985 11.9181 6.12841 10.6954 6.58932C9.64886 6.99354 8.69839 7.61206 7.90495 8.40519C7.11151 9.19833 6.49263 10.1486 6.08802 11.1949C5.62834 12.4192 5.3804 13.7127 5.35483 15.0201C5.27958 16.7035 5.25684 17.2372 5.25684 21.5121C5.25684 25.7852 5.25684 26.3294 5.35483 28.004C5.38108 29.3129 5.6278 30.6043 6.08802 31.831C6.49377 32.877 7.11325 33.8268 7.90688 34.6198C8.70051 35.4129 9.65083 36.0316 10.6971 36.4366C11.9175 36.9146 13.2106 37.1809 14.5206 37.224C16.2057 37.2975 16.7394 37.3203 21.0125 37.3203C25.2857 37.3203 25.8334 37.3203 27.5045 37.224C28.8118 37.1974 30.1052 36.9495 31.3297 36.4908C32.3756 36.0852 33.3256 35.466 34.1189 34.6727C34.9122 33.8794 35.5314 32.9294 35.937 31.8835C36.3972 30.6586 36.644 29.3672 36.6702 28.0583C36.7455 26.3749 36.7682 25.8412 36.7682 21.5663C36.7682 17.2914 36.7682 16.749 36.6702 15.0744C36.6498 13.7484 36.4006 12.436 35.9335 11.1949V11.1949ZM33.8022 27.8745C33.7909 28.883 33.6069 29.882 33.258 30.8283C32.9952 31.5088 32.5929 32.1267 32.077 32.6423C31.561 33.158 30.9429 33.5599 30.2623 33.8223C29.3265 34.1696 28.338 34.3536 27.34 34.3665C25.6776 34.4435 25.2087 34.4627 20.946 34.4627C16.6799 34.4627 16.2442 34.4627 14.5503 34.3665C13.5528 34.3543 12.5648 34.1702 11.6298 33.8223C10.9468 33.5615 10.3262 33.1603 9.80801 32.6446C9.28986 32.1288 8.88574 31.5101 8.62181 30.8283C8.27787 29.8922 8.09389 28.9049 8.0776 27.9078C8.00236 26.2454 7.98486 25.7765 7.98486 21.5138C7.98486 17.2494 7.98486 16.8137 8.0776 15.1181C8.08891 14.1102 8.27298 13.1118 8.62181 12.1661C9.15551 10.7855 10.2492 9.69881 11.6298 9.17035C12.5653 8.82413 13.5529 8.64008 14.5503 8.62615C16.2144 8.55091 16.6816 8.52991 20.946 8.52991C25.2104 8.52991 25.6479 8.52991 27.34 8.62615C28.3381 8.63816 29.3267 8.82226 30.2623 9.17035C30.9428 9.43331 31.5609 9.83565 32.0768 10.3516C32.5927 10.8675 32.995 11.4855 33.258 12.1661C33.6019 13.1022 33.7859 14.0895 33.8022 15.0866C33.8774 16.7507 33.8967 17.2179 33.8967 21.4823C33.8967 25.745 33.8967 26.2034 33.8215 27.8763H33.8022V27.8745Z" fill="#DBDBDB"/>
</svg>
