<svg width="47" height="46" viewBox="0 0 47 46" fill="none" xmlns="http://www.w3.org/2000/svg">
<path d="M23.7471 14.2437C21.4053 14.2437 19.1594 15.1739 17.5035 16.8298C15.8476 18.4858 14.9173 20.7317 14.9173 23.0735C14.9173 25.4153 15.8476 27.6612 17.5035 29.3171C19.1594 30.973 21.4053 31.9033 23.7471 31.9033C26.089 31.9033 28.3349 30.973 29.9908 29.3171C31.6467 27.6612 32.577 25.4153 32.577 23.0735C32.577 20.7317 31.6467 18.4858 29.9908 16.8298C28.3349 15.1739 26.089 14.2437 23.7471 14.2437ZM23.7471 28.8079C22.2258 28.8079 20.7667 28.2035 19.691 27.1278C18.6152 26.052 18.0108 24.5929 18.0108 23.0716C18.0108 21.5502 18.6152 20.0911 19.691 19.0154C20.7667 17.9396 22.2258 17.3352 23.7471 17.3352C25.2685 17.3352 26.7276 17.9396 27.8033 19.0154C28.8791 20.0911 29.4835 21.5502 29.4835 23.0716C29.4835 24.5929 28.8791 26.052 27.8033 27.1278C26.7276 28.2035 25.2685 28.8079 23.7471 28.8079Z" fill="white"/>
<path d="M32.9262 15.9774C34.0631 15.9774 34.9847 15.0557 34.9847 13.9189C34.9847 12.782 34.0631 11.8604 32.9262 11.8604C31.7894 11.8604 30.8677 12.782 30.8677 13.9189C30.8677 15.0557 31.7894 15.9774 32.9262 15.9774Z" fill="white"/>
<path d="M40.0434 11.8256C39.6014 10.6841 38.9258 9.64736 38.06 8.7819C37.1942 7.91644 36.1573 7.24129 35.0155 6.79966C33.6795 6.29813 32.268 6.02694 30.8412 5.99765C29.0023 5.91745 28.4199 5.89453 23.7568 5.89453C19.0936 5.89453 18.4959 5.89453 16.6723 5.99765C15.2466 6.02544 13.8361 6.29669 12.5018 6.79966C11.3598 7.24078 10.3225 7.91575 9.45668 8.78127C8.59082 9.6468 7.91546 10.6838 7.47391 11.8256C6.97228 13.1616 6.70171 14.5732 6.67381 15.9999C6.5917 17.8369 6.56687 18.4194 6.56687 23.0844C6.56687 27.7476 6.56687 28.3414 6.67381 30.1689C6.70245 31.5973 6.9717 33.0065 7.47391 34.3451C7.9167 35.4866 8.59272 36.5231 9.45878 37.3885C10.3248 38.2539 11.3619 38.9292 12.5037 39.3711C13.8355 39.8928 15.2465 40.1834 16.6761 40.2304C18.515 40.3106 19.0974 40.3354 23.7606 40.3354C28.4237 40.3354 29.0214 40.3354 30.8451 40.2304C32.2717 40.2014 33.6831 39.9308 35.0194 39.4303C36.1608 38.9876 37.1975 38.3119 38.0631 37.4462C38.9288 36.5805 39.6046 35.5438 40.0472 34.4024C40.5495 33.0657 40.8187 31.6564 40.8473 30.2281C40.9295 28.3911 40.9543 27.8087 40.9543 23.1436C40.9543 18.4786 40.9543 17.8866 40.8473 16.0591C40.8251 14.6122 40.5531 13.18 40.0434 11.8256ZM37.7176 30.0276C37.7053 31.1281 37.5044 32.2183 37.1237 33.2509C36.8369 33.9935 36.3979 34.6678 35.8349 35.2305C35.2718 35.7932 34.5973 36.2319 33.8545 36.5182C32.8333 36.8971 31.7547 37.098 30.6656 37.1121C28.8515 37.1961 28.3397 37.2171 23.688 37.2171C19.0325 37.2171 18.557 37.2171 16.7086 37.1121C15.62 37.0987 14.5418 36.8978 13.5215 36.5182C12.7762 36.2336 12.0989 35.7958 11.5334 35.233C10.968 34.6702 10.527 33.9949 10.239 33.2509C9.86363 32.2294 9.66287 31.152 9.64509 30.0639C9.56298 28.2498 9.54388 27.738 9.54388 23.0863C9.54388 18.4327 9.54388 17.9572 9.64509 16.1069C9.65743 15.007 9.8583 13.9174 10.239 12.8854C10.8214 11.3788 12.0149 10.193 13.5215 9.61627C14.5423 9.23844 15.6202 9.0376 16.7086 9.0224C18.5246 8.94028 19.0344 8.91737 23.688 8.91737C28.3416 8.91737 28.819 8.91737 30.6656 9.0224C31.7548 9.0355 32.8336 9.2364 33.8545 9.61627C34.5972 9.90323 35.2717 10.3423 35.8347 10.9053C36.3977 11.4683 36.8367 12.1428 37.1237 12.8854C37.499 13.907 37.6998 14.9844 37.7176 16.0725C37.7997 17.8885 37.8207 18.3984 37.8207 23.052C37.8207 27.7037 37.8207 28.204 37.7386 30.0295H37.7176V30.0276Z" fill="white"/>
</svg>
