<svg width="41" height="40" viewBox="0 0 41 40" fill="none" xmlns="http://www.w3.org/2000/svg">
<path d="M14.3502 17.1329C13.5254 17.1329 12.7192 17.3777 12.0336 17.8363C11.3481 18.2949 10.814 18.9466 10.4992 19.709C10.1843 20.4713 10.1028 21.3099 10.2649 22.1186C10.427 22.9273 10.8255 23.6697 11.4099 24.2518C11.9943 24.8338 12.7383 25.2293 13.5476 25.3882C14.357 25.5471 15.1953 25.4622 15.9563 25.1443C16.7174 24.8264 17.367 24.2897 17.8228 23.6023C18.2786 22.9149 18.5202 22.1077 18.5169 21.2829C18.5125 20.1808 18.0716 19.1252 17.2906 18.3474C16.5097 17.5696 15.4524 17.1329 14.3502 17.1329V17.1329ZM14.3502 23.4663C14.0486 23.4927 13.7448 23.4561 13.458 23.3588C13.1713 23.2615 12.908 23.1056 12.6847 22.9011C12.4615 22.6965 12.2832 22.4478 12.1613 22.1707C12.0393 21.8935 11.9763 21.5941 11.9763 21.2913C11.9763 20.9885 12.0393 20.689 12.1613 20.4119C12.2832 20.1347 12.4615 19.886 12.6847 19.6814C12.908 19.4769 13.1713 19.321 13.458 19.2237C13.7448 19.1264 14.0486 19.0898 14.3502 19.1163C14.6519 19.0898 14.9557 19.1264 15.2424 19.2237C15.5291 19.321 15.7925 19.4769 16.0157 19.6814C16.239 19.886 16.4173 20.1347 16.5392 20.4119C16.6612 20.689 16.7241 20.9885 16.7241 21.2913C16.7241 21.5941 16.6612 21.8935 16.5392 22.1707C16.4173 22.4478 16.239 22.6965 16.0157 22.9011C15.7925 23.1056 15.5291 23.2615 15.2424 23.3588C14.9557 23.4561 14.6519 23.4927 14.3502 23.4663V23.4663ZM26.6502 17.1329C25.8254 17.1329 25.0192 17.3777 24.3336 17.8363C23.6481 18.2949 23.114 18.9466 22.7992 19.709C22.4843 20.4713 22.4028 21.3099 22.5649 22.1186C22.727 22.9273 23.1255 23.6697 23.7099 24.2518C24.2943 24.8338 25.0383 25.2293 25.8476 25.3882C26.657 25.5471 27.4953 25.4622 28.2563 25.1443C29.0174 24.8264 29.667 24.2897 30.1228 23.6023C30.5786 22.9149 30.8202 22.1077 30.8169 21.2829C30.8125 20.1808 30.3716 19.1252 29.5906 18.3474C28.8097 17.5696 27.7524 17.1329 26.6502 17.1329V17.1329ZM28.8336 21.2829C28.8369 21.7155 28.7116 22.1392 28.4737 22.5004C28.2358 22.8617 27.896 23.1441 27.4974 23.3119C27.0987 23.4797 26.6592 23.5253 26.2346 23.443C25.81 23.3606 25.4194 23.154 25.1124 22.8494C24.8054 22.5447 24.5957 22.1557 24.5101 21.7317C24.4245 21.3077 24.4668 20.8679 24.6315 20.468C24.7963 20.068 25.0761 19.7261 25.4355 19.4854C25.7949 19.2448 26.2177 19.1163 26.6502 19.1163C27.2264 19.1163 27.7792 19.344 28.1882 19.7498C28.5972 20.1557 28.8292 20.7068 28.8336 21.2829Z" fill="#094900"/>
<path d="M20.4997 3.3335C17.2033 3.3335 13.981 4.31098 11.2402 6.14234C8.49936 7.97369 6.36315 10.5767 5.10169 13.6221C3.84023 16.6675 3.51017 20.0186 4.15326 23.2517C4.79635 26.4847 6.38369 29.4544 8.71457 31.7853C11.0454 34.1161 14.0152 35.7035 17.2482 36.3466C20.4812 36.9897 23.8323 36.6596 26.8777 35.3982C29.9232 34.1367 32.5261 32.0005 34.3575 29.2597C36.1889 26.5188 37.1663 23.2965 37.1663 20.0002C37.1663 17.8115 36.7353 15.6442 35.8977 13.6221C35.0601 11.6 33.8324 9.76269 32.2848 8.21505C30.7372 6.66741 28.8998 5.43975 26.8777 4.60217C24.8556 3.76459 22.6884 3.3335 20.4997 3.3335V3.3335ZM32.7997 21.2835C32.8014 22.481 32.4534 23.653 31.7984 24.6556C31.1435 25.6582 30.2101 26.4477 29.1128 26.9273C28.0155 27.407 26.8021 27.5558 25.6214 27.3556C24.4407 27.1553 23.3442 26.6147 22.4663 25.8002L20.4997 27.9502L18.533 25.8002C17.9377 26.3473 17.2404 26.7719 16.481 27.0496C15.7216 27.3273 14.9149 27.4527 14.1071 27.4187C13.2992 27.3846 12.506 27.1918 11.7726 26.8512C11.0393 26.5105 10.3802 26.0288 9.83302 25.4335C9.28584 24.8382 8.86128 24.1409 8.58358 23.3815C8.30588 22.6221 8.18047 21.8154 8.21452 21.0076C8.24857 20.1997 8.4414 19.4064 8.78202 18.6731C9.12263 17.9397 9.60436 17.2807 10.1997 16.7335L8.19968 14.5668H12.6663C14.9759 12.986 17.7093 12.1402 20.508 12.1402C23.3067 12.1402 26.0401 12.986 28.3497 14.5668H32.7997L30.7997 16.7502C31.4276 17.3271 31.9294 18.0276 32.2736 18.8077C32.6178 19.5879 32.7969 20.4308 32.7997 21.2835V21.2835Z" fill="#094900"/>
<path d="M25.1161 15.0836C23.6536 14.473 22.0844 14.1586 20.4995 14.1586C18.9146 14.1586 17.3454 14.473 15.8828 15.0836C17.1754 15.5148 18.3076 16.3263 19.1313 17.4117C19.9551 18.4971 20.4319 19.806 20.4995 21.1669C20.5715 19.8073 21.0501 18.5005 21.8732 17.416C22.6963 16.3314 23.826 15.5188 25.1161 15.0836V15.0836Z" fill="#094900"/>
</svg>
