<svg width="41" height="41" viewBox="0 0 41 41" fill="none" xmlns="http://www.w3.org/2000/svg">
<path d="M14.3502 17.2179C13.5254 17.2179 12.7192 17.4627 12.0336 17.9213C11.3481 18.3799 10.814 19.0316 10.4992 19.7939C10.1843 20.5563 10.1028 21.3949 10.2649 22.2036C10.427 23.0123 10.8255 23.7547 11.4099 24.3367C11.9943 24.9188 12.7383 25.3143 13.5476 25.4732C14.357 25.6321 15.1953 25.5472 15.9563 25.2293C16.7174 24.9113 17.367 24.3747 17.8228 23.6873C18.2786 22.9999 18.5202 22.1927 18.5169 21.3679C18.5125 20.2657 18.0716 19.2102 17.2906 18.4324C16.5097 17.6546 15.4524 17.2179 14.3502 17.2179ZM14.3502 23.5512C14.0486 23.5777 13.7448 23.5411 13.458 23.4438C13.1713 23.3465 12.908 23.1906 12.6847 22.986C12.4615 22.7815 12.2832 22.5328 12.1613 22.2556C12.0393 21.9785 11.9763 21.679 11.9763 21.3762C11.9763 21.0734 12.0393 20.774 12.1613 20.4968C12.2832 20.2197 12.4615 19.971 12.6847 19.7664C12.908 19.5619 13.1713 19.406 13.458 19.3087C13.7448 19.2114 14.0486 19.1748 14.3502 19.2012C14.6519 19.1748 14.9557 19.2114 15.2424 19.3087C15.5291 19.406 15.7925 19.5619 16.0157 19.7664C16.239 19.971 16.4173 20.2197 16.5392 20.4968C16.6612 20.774 16.7241 21.0734 16.7241 21.3762C16.7241 21.679 16.6612 21.9785 16.5392 22.2556C16.4173 22.5328 16.239 22.7815 16.0157 22.986C15.7925 23.1906 15.5291 23.3465 15.2424 23.4438C14.9557 23.5411 14.6519 23.5777 14.3502 23.5512ZM26.6502 17.2179C25.8254 17.2179 25.0192 17.4627 24.3336 17.9213C23.6481 18.3799 23.114 19.0316 22.7992 19.7939C22.4843 20.5563 22.4028 21.3949 22.5649 22.2036C22.727 23.0123 23.1255 23.7547 23.7099 24.3367C24.2943 24.9188 25.0383 25.3143 25.8476 25.4732C26.657 25.6321 27.4953 25.5472 28.2563 25.2293C29.0174 24.9113 29.667 24.3747 30.1228 23.6873C30.5786 22.9999 30.8202 22.1927 30.8169 21.3679C30.8125 20.2657 30.3716 19.2102 29.5906 18.4324C28.8097 17.6546 27.7524 17.2179 26.6502 17.2179ZM28.8336 21.3679C28.8369 21.8004 28.7116 22.2242 28.4737 22.5854C28.2358 22.9466 27.896 23.2291 27.4974 23.3969C27.0987 23.5647 26.6592 23.6103 26.2346 23.528C25.81 23.4456 25.4194 23.239 25.1124 22.9343C24.8054 22.6296 24.5957 22.2407 24.5101 21.8167C24.4245 21.3927 24.4668 20.9529 24.6315 20.5529C24.7963 20.153 25.0761 19.811 25.4355 19.5704C25.7949 19.3297 26.2177 19.2012 26.6502 19.2012C27.2264 19.2012 27.7792 19.429 28.1882 19.8348C28.5972 20.2407 28.8292 20.7917 28.8336 21.3679Z" fill="#DBDBDB"/>
<path d="M20.4997 3.41846C17.2033 3.41846 13.981 4.39594 11.2402 6.2273C8.49936 8.05865 6.36315 10.6616 5.10169 13.7071C3.84023 16.7525 3.51017 20.1036 4.15326 23.3366C4.79635 26.5696 6.38369 29.5394 8.71457 31.8702C11.0454 34.2011 14.0152 35.7885 17.2482 36.4315C20.4812 37.0746 23.8323 36.7446 26.8777 35.4831C29.9232 34.2217 32.5261 32.0854 34.3575 29.3446C36.1889 26.6038 37.1663 23.3815 37.1663 20.0851C37.1663 17.8964 36.7353 15.7292 35.8977 13.7071C35.0601 11.685 33.8324 9.84765 32.2848 8.30001C30.7372 6.75237 28.8998 5.52471 26.8777 4.68713C24.8556 3.84955 22.6884 3.41846 20.4997 3.41846ZM32.7997 21.3685C32.8014 22.566 32.4534 23.738 31.7984 24.7406C31.1435 25.7431 30.2101 26.5327 29.1128 27.0123C28.0155 27.4919 26.8021 27.6408 25.6214 27.4405C24.4407 27.2403 23.3442 26.6997 22.4663 25.8851L20.4997 28.0351L18.533 25.8851C17.9377 26.4323 17.2404 26.8569 16.481 27.1346C15.7216 27.4123 14.9149 27.5377 14.1071 27.5036C13.2992 27.4696 12.506 27.2767 11.7726 26.9361C11.0393 26.5955 10.3802 26.1138 9.83301 25.5185C9.28584 24.9231 8.86128 24.2259 8.58358 23.4665C8.30588 22.7071 8.18047 21.9004 8.21452 21.0925C8.24857 20.2846 8.4414 19.4914 8.78202 18.758C9.12263 18.0247 9.60436 17.3656 10.1997 16.8185L8.19968 14.6518H12.6663C14.9759 13.071 17.7093 12.2251 20.508 12.2251C23.3067 12.2251 26.0401 13.071 28.3497 14.6518H32.7997L30.7997 16.8351C31.4276 17.412 31.9294 18.1125 32.2736 18.8927C32.6178 19.6728 32.7969 20.5158 32.7997 21.3685Z" fill="#DBDBDB"/>
<path d="M25.1161 15.1685C23.6536 14.5579 22.0844 14.2435 20.4995 14.2435C18.9146 14.2435 17.3454 14.5579 15.8828 15.1685C17.1754 15.5998 18.3076 16.4113 19.1313 17.4967C19.9551 18.5821 20.4319 19.8909 20.4995 21.2519C20.5715 19.8922 21.0501 18.5855 21.8732 17.5009C22.6963 16.4163 23.826 15.6038 25.1161 15.1685Z" fill="#DBDBDB"/>
</svg>
