<svg width="46" height="46" viewBox="0 0 46 46" fill="none" xmlns="http://www.w3.org/2000/svg">
<path d="M15.9357 19.7866C14.9907 19.7866 14.067 20.0671 13.2815 20.5925C12.496 21.1179 11.8842 21.8646 11.5234 22.7381C11.1626 23.6115 11.0692 24.5724 11.255 25.4989C11.4407 26.4255 11.8973 27.2761 12.5669 27.943C13.2364 28.6098 14.0888 29.063 15.0161 29.245C15.9434 29.4271 16.9039 29.3298 17.7759 28.9655C18.6478 28.6013 19.3921 27.9864 19.9144 27.1989C20.4366 26.4113 20.7134 25.4864 20.7096 24.5414C20.7046 23.2786 20.1994 22.0693 19.3046 21.1781C18.4099 20.287 17.1985 19.7866 15.9357 19.7866ZM15.9357 27.043C15.5901 27.0732 15.242 27.0313 14.9135 26.9198C14.585 26.8084 14.2833 26.6298 14.0275 26.3954C13.7717 26.1611 13.5674 25.8761 13.4277 25.5585C13.288 25.241 13.2158 24.8979 13.2158 24.551C13.2158 24.2041 13.288 23.861 13.4277 23.5434C13.5674 23.2259 13.7717 22.9409 14.0275 22.7066C14.2833 22.4722 14.585 22.2936 14.9135 22.1821C15.242 22.0707 15.5901 22.0287 15.9357 22.059C16.2813 22.0287 16.6294 22.0707 16.9579 22.1821C17.2864 22.2936 17.5882 22.4722 17.8439 22.7066C18.0997 22.9409 18.304 23.2259 18.4437 23.5434C18.5834 23.861 18.6556 24.2041 18.6556 24.551C18.6556 24.8979 18.5834 25.241 18.4437 25.5585C18.304 25.8761 18.0997 26.1611 17.8439 26.3954C17.5882 26.6298 17.2864 26.8084 16.9579 26.9198C16.6294 27.0313 16.2813 27.0732 15.9357 27.043ZM30.0283 19.7866C29.0833 19.7866 28.1595 20.0671 27.3741 20.5925C26.5886 21.1179 25.9767 21.8646 25.616 22.7381C25.2552 23.6115 25.1618 24.5724 25.3475 25.4989C25.5333 26.4255 25.9899 27.2761 26.6594 27.943C27.329 28.6098 28.1814 29.063 29.1087 29.245C30.036 29.4271 30.9965 29.3298 31.8684 28.9655C32.7404 28.6013 33.4847 27.9864 34.0069 27.1989C34.5292 26.4113 34.806 25.4864 34.8022 24.5414C34.7971 23.2786 34.2919 22.0693 33.3972 21.1781C32.5025 20.287 31.2911 19.7866 30.0283 19.7866ZM32.5298 24.5414C32.5336 25.037 32.3901 25.5225 32.1175 25.9364C31.845 26.3503 31.4556 26.6738 30.9989 26.8661C30.5421 27.0584 30.0386 27.1107 29.5521 27.0163C29.0656 26.9219 28.6181 26.6852 28.2663 26.3361C27.9145 25.9871 27.6744 25.5414 27.5763 25.0556C27.4782 24.5699 27.5266 24.0659 27.7154 23.6077C27.9042 23.1495 28.2248 22.7577 28.6365 22.4819C29.0483 22.2062 29.5327 22.059 30.0283 22.059C30.6884 22.059 31.3218 22.3199 31.7904 22.7849C32.259 23.2499 32.5248 23.8813 32.5298 24.5414Z" fill="white"/>
<path d="M22.9818 3.97607C19.205 3.97607 15.5131 5.09601 12.3728 7.19427C9.23255 9.29252 6.78502 12.2749 5.33972 15.7641C3.89441 19.2534 3.51626 23.0929 4.25306 26.7971C4.98987 30.5013 6.80856 33.9038 9.47913 36.5744C12.1497 39.2449 15.5522 41.0636 19.2564 41.8004C22.9606 42.5372 26.8001 42.1591 30.2894 40.7138C33.7786 39.2685 36.761 36.8209 38.8592 33.6807C40.9575 30.5404 42.0774 26.8485 42.0774 23.0717C42.0774 20.564 41.5835 18.0809 40.6238 15.7641C39.6642 13.4473 38.2576 11.3422 36.4844 9.56906C34.7112 7.79586 32.6062 6.38929 30.2894 5.42964C27.9726 4.47 25.4895 3.97607 22.9818 3.97607ZM37.0744 24.5421C37.0763 25.9141 36.6776 27.2569 35.9272 28.4056C35.1768 29.5543 34.1074 30.4589 32.8502 31.0084C31.593 31.558 30.2027 31.7285 28.8499 31.4991C27.4972 31.2697 26.2408 30.6503 25.2351 29.717L22.9818 32.1803L20.7285 29.717C20.0464 30.3439 19.2475 30.8303 18.3774 31.1485C17.5074 31.4667 16.5831 31.6104 15.6575 31.5714C14.7319 31.5323 13.8231 31.3114 12.9828 30.9212C12.1426 30.5309 11.3875 29.979 10.7606 29.2969C10.1337 28.6148 9.64722 27.8159 9.32905 26.9458C9.01088 26.0758 8.86719 25.1515 8.9062 24.2259C8.94521 23.3003 9.16615 22.3915 9.55641 21.5512C9.94666 20.711 10.4986 19.9559 11.1807 19.329L8.8892 16.8465H14.0068C16.653 15.0354 19.7847 14.0662 22.9913 14.0662C26.1979 14.0662 29.3297 15.0354 31.9758 16.8465H37.0744L34.7829 19.3481C35.5023 20.009 36.0773 20.8117 36.4716 21.7055C36.866 22.5993 37.0712 23.5651 37.0744 24.5421Z" fill="white"/>
<path d="M28.2714 17.4382C26.5956 16.7386 24.7978 16.3784 22.9819 16.3784C21.166 16.3784 19.3681 16.7386 17.6924 17.4382C19.1733 17.9324 20.4706 18.8621 21.4143 20.1057C22.3581 21.3493 22.9045 22.8489 22.9819 24.4081C23.0644 22.8503 23.6127 21.3532 24.5558 20.1105C25.4988 18.8679 26.7932 17.9369 28.2714 17.4382Z" fill="white"/>
</svg>
