<svg width="42" height="43" viewBox="0 0 42 43" fill="none" xmlns="http://www.w3.org/2000/svg">
<path d="M14.5406 18.4899C13.6747 18.4899 12.8282 18.7469 12.1084 19.2284C11.3886 19.7098 10.8279 20.3941 10.4973 21.1945C10.1667 21.9949 10.0811 22.8753 10.2514 23.7244C10.4216 24.5735 10.84 25.3529 11.4535 25.964C12.0671 26.5751 12.8482 26.9904 13.6979 27.1572C14.5477 27.324 15.4278 27.2349 16.2269 26.9011C17.0259 26.5673 17.7079 26.0039 18.1865 25.2822C18.6651 24.5605 18.9187 23.713 18.9153 22.847C18.9106 21.6898 18.4477 20.5816 17.6278 19.765C16.8079 18.9484 15.6978 18.4899 14.5406 18.4899V18.4899ZM14.5406 25.1393C14.2239 25.1671 13.9049 25.1286 13.6039 25.0265C13.3029 24.9243 13.0264 24.7607 12.792 24.5459C12.5576 24.3312 12.3704 24.07 12.2424 23.779C12.1143 23.4881 12.0482 23.1737 12.0482 22.8558C12.0482 22.5379 12.1143 22.2234 12.2424 21.9325C12.3704 21.6415 12.5576 21.3803 12.792 21.1656C13.0264 20.9508 13.3029 20.7872 13.6039 20.685C13.9049 20.5829 14.2239 20.5444 14.5406 20.5722C14.8573 20.5444 15.1763 20.5829 15.4773 20.685C15.7784 20.7872 16.0549 20.9508 16.2893 21.1656C16.5236 21.3803 16.7108 21.6415 16.8389 21.9325C16.9669 22.2234 17.033 22.5379 17.033 22.8558C17.033 23.1737 16.9669 23.4881 16.8389 23.779C16.7108 24.07 16.5236 24.3312 16.2893 24.5459C16.0549 24.7607 15.7784 24.9243 15.4773 25.0265C15.1763 25.1286 14.8573 25.1671 14.5406 25.1393V25.1393ZM27.4545 18.4899C26.5886 18.4899 25.7421 18.7469 25.0223 19.2284C24.3025 19.7098 23.7418 20.3941 23.4113 21.1945C23.0807 21.9949 22.9951 22.8753 23.1653 23.7244C23.3355 24.5735 23.7539 25.3529 24.3674 25.964C24.981 26.5751 25.7621 26.9904 26.6119 27.1572C27.4616 27.324 28.3418 27.2349 29.1408 26.9011C29.9399 26.5673 30.6219 26.0039 31.1004 25.2822C31.579 24.5605 31.8326 23.713 31.8292 22.847C31.8245 21.6898 31.3616 20.5816 30.5417 19.765C29.7218 18.9484 28.6117 18.4899 27.4545 18.4899V18.4899ZM29.7469 22.847C29.7503 23.3011 29.6188 23.746 29.3691 24.1253C29.1193 24.5045 28.7625 24.8011 28.344 24.9773C27.9254 25.1534 27.464 25.2013 27.0182 25.1149C26.5723 25.0284 26.1623 24.8115 25.8399 24.4916C25.5176 24.1717 25.2975 23.7633 25.2076 23.3182C25.1178 22.8731 25.1621 22.4113 25.3351 21.9914C25.5081 21.5715 25.8019 21.2124 26.1792 20.9598C26.5565 20.7071 27.0004 20.5722 27.4545 20.5722C28.0595 20.5722 28.6399 20.8113 29.0693 21.2374C29.4987 21.6635 29.7422 22.2421 29.7469 22.847Z" fill="#DBDBDB"/>
<path d="M20.9976 4.00159C17.5367 4.00159 14.1535 5.02786 11.2759 6.95062C8.39828 8.87339 6.15545 11.6063 4.83103 14.8037C3.50661 18.0012 3.16008 21.5195 3.83526 24.9139C4.51045 28.3083 6.17702 31.4263 8.62424 33.8735C11.0715 36.3207 14.1894 37.9873 17.5838 38.6624C20.9782 39.3376 24.4965 38.9911 27.694 37.6667C30.8914 36.3423 33.6243 34.0994 35.5471 31.2218C37.4698 28.3442 38.4961 24.961 38.4961 21.5001C38.4961 19.2022 38.0435 16.9267 37.1641 14.8037C36.2847 12.6807 34.9958 10.7517 33.3709 9.12679C31.746 7.5019 29.817 6.21297 27.694 5.33358C25.571 4.4542 23.2955 4.00159 20.9976 4.00159V4.00159ZM33.9115 22.8475C33.9133 24.1048 33.5479 25.3353 32.8603 26.3879C32.1727 27.4405 31.1927 28.2695 30.0406 28.7731C28.8885 29.2766 27.6145 29.4329 26.3749 29.2227C25.1353 29.0124 23.984 28.4449 23.0624 27.5896L20.9976 29.8469L18.9327 27.5896C18.3077 28.1641 17.5756 28.6099 16.7783 28.9014C15.981 29.193 15.1341 29.3246 14.2859 29.2889C13.4377 29.2532 12.6049 29.0507 11.8349 28.6931C11.065 28.3355 10.373 27.8297 9.79851 27.2047C9.22402 26.5796 8.77827 25.8475 8.48671 25.0502C8.19515 24.2529 8.06348 23.406 8.09923 22.5578C8.13498 21.7096 8.33744 20.8768 8.69505 20.1068C9.05267 19.3369 9.55844 18.6449 10.1835 18.0704L8.08365 15.7956H12.7733C15.1981 14.1359 18.0679 13.2478 21.0063 13.2478C23.9447 13.2478 26.8146 14.1359 29.2394 15.7956H33.9115L31.8117 18.0879C32.4709 18.6936 32.9978 19.4291 33.3592 20.2482C33.7205 21.0673 33.9086 21.9523 33.9115 22.8475V22.8475Z" fill="#DBDBDB"/>
<path d="M25.8446 16.3381C24.309 15.697 22.6615 15.3669 20.9975 15.3669C19.3335 15.3669 17.686 15.697 16.1504 16.3381C17.5075 16.7909 18.6962 17.6429 19.5611 18.7825C20.4259 19.9221 20.9266 21.2962 20.9975 22.7251C21.0731 21.2976 21.5756 19.9256 22.4398 18.7869C23.3039 17.6482 24.4901 16.7951 25.8446 16.3381V16.3381Z" fill="#DBDBDB"/>
</svg>
