<svg width="42" height="43" viewBox="0 0 42 43" fill="none" xmlns="http://www.w3.org/2000/svg">
<path d="M21.0704 4C11.5154 4 3.72789 11.7875 3.72789 21.3425C3.72789 24.405 4.53289 27.38 6.03789 30.005L3.58789 39L12.7754 36.585C15.3129 37.9675 18.1654 38.7025 21.0704 38.7025C30.6254 38.7025 38.4129 30.915 38.4129 21.36C38.4129 16.7225 36.6104 12.365 33.3379 9.0925C30.0654 5.8025 25.7079 4 21.0704 4ZM21.0879 6.9225C24.9379 6.9225 28.5429 8.4275 31.2729 11.1575C33.9854 13.8875 35.4904 17.51 35.4904 21.36C35.4904 29.305 29.0154 35.7625 21.0704 35.7625C18.4804 35.7625 15.9429 35.08 13.7379 33.75L13.2129 33.4525L7.75289 34.8875L9.20539 29.5675L8.85539 29.0075C7.42039 26.75 6.65039 24.0725 6.65039 21.3425C6.66789 13.3975 13.1254 6.9225 21.0879 6.9225ZM14.9279 13.3275C14.6479 13.3275 14.1754 13.4325 13.7729 13.87C13.3879 14.3075 12.2504 15.375 12.2504 17.4925C12.2504 19.6275 13.8079 21.675 14.0004 21.9725C14.2454 22.27 17.0804 26.645 21.4379 28.5C22.4704 28.9725 23.2754 29.235 23.9054 29.4275C24.9379 29.76 25.8829 29.7075 26.6354 29.6025C27.4754 29.48 29.1904 28.5525 29.5579 27.5375C29.9254 26.5225 29.9254 25.665 29.8204 25.4725C29.6979 25.2975 29.4179 25.1925 28.9804 25C28.5429 24.755 26.4079 23.705 26.0229 23.565C25.6204 23.425 25.3754 23.355 25.0429 23.775C24.7629 24.2125 23.9229 25.1925 23.6779 25.4725C23.4154 25.77 23.1704 25.805 22.7504 25.595C22.2954 25.3675 20.8954 24.9125 19.2504 23.4425C17.9554 22.2875 17.0979 20.87 16.8354 20.4325C16.6254 20.0125 16.8179 19.75 17.0279 19.5575C17.2204 19.365 17.5004 19.05 17.6754 18.7875C17.9029 18.5425 17.9729 18.35 18.1129 18.07C18.2529 17.7725 18.1829 17.5275 18.0779 17.3175C17.9729 17.125 17.0979 14.955 16.7304 14.0975C16.3804 13.2575 16.0304 13.3625 15.7504 13.345C15.5054 13.345 15.2254 13.3275 14.9279 13.3275Z" fill="#DBDBDB"/>
</svg>
