<svg width="54" height="102" viewBox="0 0 54 102" fill="none" xmlns="http://www.w3.org/2000/svg">
<path fill-rule="evenodd" clip-rule="evenodd" d="M51.8369 1.7637C52.409 1.8244 52.9979 1.55878 53.0592 0.981384C53.1287 0.327084 52.7675 0.2245 52.4039 0C52.1038 0.2097 51.9005 0.201891 51.6842 0.554291C51.3982 1.02009 51.484 0.899813 51.0408 1.20361C50.7015 1.43601 49.839 1.85881 49.4527 2.04291C48.8475 2.33151 47.1227 3.5596 46.4509 4.0235C44.4582 5.399 42.5468 6.74151 40.5792 8.14731C39.6049 8.84371 38.6261 9.52959 37.6956 10.2743C37.1995 10.6712 36.7669 11.0465 36.3052 11.4438C36.0741 11.6423 35.8187 11.8223 35.6308 12.0545C35.4231 12.3121 35.2236 12.346 34.9457 12.5666C34.1849 13.1693 30.0197 16.937 29.9329 17.7541L29.9169 17.9047C29.8799 18.2529 30.0333 18.1457 29.9954 18.5972C30.3051 18.7161 30.1108 18.7611 30.355 18.7871C30.4013 18.7921 32.3269 16.4337 32.6293 16.1609C33.0186 15.8095 33.5687 15.3871 33.8868 14.9969C34.272 14.5243 34.7463 14.3334 35.1491 13.8388C35.6866 13.1797 39.553 9.92888 40.3244 9.44778C41.2016 8.90018 42.1225 7.9736 43.0783 7.4155C43.4383 7.205 44.0193 6.6855 44.4473 6.3895C44.9081 6.0704 45.3177 5.7389 45.782 5.4061C46.7065 4.7433 47.6729 4.0902 48.6286 3.4888C49.0709 3.2102 49.6492 2.84119 50.1083 2.59979C50.3523 2.47159 51.4735 1.89541 51.5362 1.73181L51.8369 1.7637Z" fill="#B1C900"/>
<path fill-rule="evenodd" clip-rule="evenodd" d="M24.385 36.7684C24.7794 36.394 25.3591 35.8444 25.3834 35.8265C25.8827 35.4635 26.2679 34.9998 26.5928 34.4669C27.1954 33.4784 27.9785 32.0221 27.6501 30.6123C26.2823 30.6123 26.0435 30.7846 24.7158 30.5901C24.0185 30.4878 22.4726 29.8565 21.9095 29.8565C21.3625 29.49 16.6622 27.2113 16.093 27.2113C15.6872 27.2113 15.5077 27.511 15.1866 27.3625C15.1318 28.0208 14.0537 28.8968 14.0537 29.7809L13.6637 30.225C13.6758 30.7685 13.5641 31.0237 13.4376 31.4318C13.2501 32.037 13.3737 31.9822 13.3737 32.5772V32.8796C13.3737 33.9571 13.5568 34.4417 14.0982 35.2532C14.6472 36.0758 14.91 36.336 15.7294 36.8712C16.6367 37.4636 18.872 38.7746 20.2475 38.7746H20.3231C20.9782 38.7746 21.3426 38.631 21.6274 38.5203L21.8427 38.4257L24.2125 36.7942L24.385 36.7684Z" fill="#B1C900"/>
<path fill-rule="evenodd" clip-rule="evenodd" d="M14.4422 24.6708L14.4314 25.6996L14.5161 26.3787L15.1202 26.667C15.91 26.6822 17.3906 27.2799 18.0334 27.5374C19.0424 27.9417 19.7059 28.1977 20.8203 28.5279C21.7578 28.8056 22.7015 29.2099 23.646 29.4795C24.3617 29.6839 25.8151 30.1588 26.6685 30.1588H28.4057C29.4182 30.1588 30.6765 30.0203 31.3518 29.7053C31.7742 29.5085 32.0959 29.3298 32.5318 29.1481C32.9563 28.9709 33.0313 28.5388 33.542 28.4963C33.6747 28.9926 38.6369 34.8644 39.3573 35.7527C40.1946 36.7857 41.6125 38.07 42.5893 39.0942C43.1286 39.6593 43.559 40.2485 44.1344 40.7981C44.4229 41.0735 44.8252 41.2317 44.9511 41.6439C45.0464 41.9562 45.2816 42.5412 45.7035 42.4779L46.3808 42.3857C46.4874 42.2468 46.6099 42.2061 46.6099 42.0244V41.7977C46.6099 41.2399 45.4653 41.1728 45.0238 40.513L45.0859 40.2072C44.2073 40.3997 40.0229 35.2986 39.2964 34.3775C38.4227 33.2701 37.5691 32.2005 36.6585 31.1218C36.1786 30.5532 35.8757 29.9189 35.4319 29.4015C34.8304 28.7005 34.6834 28.7025 34.2219 27.7404L35.6859 26.333L36.2575 25.4202L36.3368 25.4729V25.0953C36.3368 24.9256 36.2771 24.9292 36.186 24.7929C35.3841 24.9798 34.0936 26.5155 33.3911 26.5311C33.2892 26.1496 32.7237 25.5778 32.4709 25.2599C32.0707 24.7563 31.9658 24.3415 31.6538 23.8856C31.4066 23.5253 29.9919 21.5484 29.9919 21.2405C29.9919 20.2731 30.1228 20.4166 29.9116 19.5073C29.838 19.1912 29.6453 18.2607 29.4844 18.0451C29.197 17.6596 29.142 17.1709 28.8048 16.8358C28.6293 16.6614 27.8717 16.1769 27.5749 16.1769H26.7438L25.9144 16.2633L25.9134 16.4036H25.4602C25.13 16.4036 24.8506 16.6424 24.2538 16.7083C23.8284 16.7552 23.2662 16.8771 22.8104 16.9266C22.1746 16.9957 21.9215 17.1533 21.4516 17.095C20.6102 16.9904 20.8021 17.1595 20.0216 17.1595C19.9431 17.308 19.8705 17.3824 19.8705 17.613V17.8394L21.2872 18.2719L22.8892 18.8294C22.7758 19.2571 22.3633 19.1988 22.3633 19.7291C22.3633 19.9787 23.2741 20.4849 23.3453 20.4849H23.5718C23.9421 20.4849 23.8554 19.6535 24.327 19.6535H24.4782C24.7369 19.6535 25.261 20.0159 25.4069 20.1603C25.6638 20.414 25.6741 20.7785 25.9307 21.0723C26.4261 21.6401 26.5705 22.4935 26.8954 22.9789C26.8954 23.7681 27.1152 26.2287 27.8019 26.2287C28.1479 26.2287 28.6854 25.0803 28.8477 24.7812C29.0522 24.4036 29.574 23.542 29.6147 23.0545L32.2947 26.8607L32.334 26.9846C31.7238 27.0353 30.7441 27.3247 30.058 27.4316C29.4996 27.5187 28.4739 27.5893 27.6507 27.5893H26.7443C24.9112 27.5893 22.5277 26.4332 20.8821 25.9724C19.8974 25.6964 19.088 25.3387 18.0274 25.0496C16.9824 24.7645 15.921 24.732 14.8851 24.4906L14.4422 24.6708Z" fill="#B1C900"/>
<path fill-rule="evenodd" clip-rule="evenodd" d="M14.4422 24.6708L14.4314 25.6996L14.5161 26.3787L15.1202 26.667C15.91 26.6822 17.3906 27.2799 18.0334 27.5374C19.0424 27.9417 19.7059 28.1977 20.8203 28.5279C21.7578 28.8056 22.7015 29.2099 23.646 29.4795C24.3617 29.6839 25.8151 30.1588 26.6685 30.1588H28.4057C29.4182 30.1588 30.6765 30.0203 31.3518 29.7053C31.7742 29.5085 32.0959 29.3298 32.5318 29.1481C32.9414 28.977 33.0255 28.5686 33.4895 28.5021L33.4915 28.4857L34.2508 27.642L34.322 27.644L35.6855 26.3332L36.2571 25.4204L36.3364 25.4731V25.0955C36.3364 24.9258 36.2767 24.9294 36.1856 24.7931C35.3878 24.9792 34.1067 26.4991 33.4018 26.5304L33.4008 26.5374L32.3253 26.9599L32.3333 26.9851C31.7231 27.0358 30.7434 27.3252 30.0573 27.4321C29.4989 27.5192 28.4732 27.5898 27.65 27.5898H26.7436C24.9105 27.5898 22.527 26.4337 20.8814 25.9729C19.8967 25.6969 19.0873 25.3392 18.0267 25.0501C16.9817 24.765 15.9203 24.7325 14.8844 24.4911L14.4422 24.6708ZM29.9919 21.1942C29.9959 20.2781 30.1193 20.4017 29.9116 19.5073C29.838 19.1912 29.6453 18.2607 29.4844 18.0451C29.197 17.6596 29.142 17.1709 28.8048 16.8358C28.6293 16.6614 27.8717 16.1769 27.5749 16.1769H26.7438L25.9144 16.2633L25.9134 16.4036H25.4602C25.13 16.4036 24.8506 16.6424 24.2538 16.7083C23.8284 16.7552 23.2662 16.8771 22.8104 16.9266C22.1746 16.9957 21.9215 17.1533 21.4516 17.095C20.6102 16.9904 20.8021 17.1595 20.0216 17.1595C19.9431 17.308 19.8705 17.3824 19.8705 17.613V17.8394L21.2872 18.2719L22.8892 18.8294C22.7758 19.2571 22.3633 19.1988 22.3633 19.7291C22.3633 19.9787 23.2741 20.4849 23.3453 20.4849H23.5718C23.9421 20.4849 23.8554 19.6535 24.327 19.6535H24.4782C24.7369 19.6535 25.261 20.0159 25.4069 20.1603C25.6638 20.414 25.6741 20.7785 25.9307 21.0723C26.4261 21.6401 26.5705 22.4935 26.8954 22.9789C26.8954 23.7681 27.1152 26.2287 27.8019 26.2287C28.1479 26.2287 28.6854 25.0803 28.8477 24.7812C29.0432 24.4206 29.5271 23.6187 29.6056 23.1227L29.5942 23.0674L29.9578 21.1611L29.9919 21.1942Z" fill="#1B1918"/>
<path fill-rule="evenodd" clip-rule="evenodd" d="M33.4895 28.5021L33.5421 28.4961C33.6748 28.9924 38.6369 34.8642 39.3573 35.7525C40.1946 36.7855 41.6125 38.0698 42.5893 39.094C43.1286 39.6591 43.559 40.2483 44.1344 40.7979C44.4229 41.0733 44.8252 41.2315 44.9511 41.6437C45.0464 41.956 45.2817 42.541 45.7036 42.4777L46.3808 42.3855C46.4874 42.2466 46.6099 42.2059 46.6099 42.0242V41.7975C46.6099 41.2397 45.4653 41.1726 45.0238 40.5128L45.0859 40.207C44.2073 40.3995 40.0229 35.2984 39.2964 34.3773C38.4227 33.2699 37.5691 32.2003 36.6585 31.1216C36.1786 30.553 35.8757 29.9187 35.4319 29.4013C34.8304 28.7003 34.6835 28.7023 34.222 27.7402L34.3224 27.6436L34.2513 27.6416L33.4919 28.4853L33.4895 28.5021ZM33.4023 26.5302L33.3911 26.5311C33.2892 26.1496 32.7237 25.5778 32.4709 25.2599C32.0707 24.7563 31.9658 24.3415 31.6538 23.8856C31.4066 23.5253 29.9919 21.5484 29.9919 21.2405V21.1942L29.9573 21.1611L29.5938 23.0674L29.6051 23.1227C29.6091 23.0996 29.6121 23.0762 29.6141 23.0545L32.2941 26.8607L32.3255 26.9594L33.401 26.5369L33.4023 26.5302Z" fill="#B1C900"/>
<path fill-rule="evenodd" clip-rule="evenodd" d="M13.4674 25.0235C13.5134 24.8398 13.4102 24.7173 13.223 24.7173H13.1474C12.4807 24.7173 11.174 26.6034 10.879 27.209C10.7176 27.5409 9.66817 30.8391 10.4279 30.8391C10.8629 30.8391 10.9567 30.6021 10.9567 30.1588C11.2042 29.7888 11.143 29.4417 11.3727 28.9879C11.5297 28.677 11.7641 28.2396 11.9592 27.9874C12.2478 27.6145 12.3031 27.4117 12.7555 27.197C12.9972 27.0827 13.62 26.8255 13.5667 26.5331L13.4674 25.0235Z" fill="#1B1918"/>
<path fill-rule="evenodd" clip-rule="evenodd" d="M14.0537 17.9151C14.0537 18.9924 15.1092 22.0535 15.7154 22.3743C15.8785 22.2879 16.093 22.2428 16.093 21.9967C16.093 21.9557 15.6304 20.9013 15.5525 20.6479C15.3629 20.0297 15.4133 19.7497 15.4133 19.1245C15.5495 19.0334 15.546 18.9733 15.7154 18.9733H15.8665C17.3079 18.9733 19.3317 20.2581 20.7763 20.2581C21.1328 20.2581 21.3956 19.9864 21.5316 19.7292L21.2992 19.4308C18.1757 19.4268 17.0955 16.4792 15.4889 16.4792H15.0357C14.6519 16.4792 14.0537 17.4171 14.0537 17.9151V17.9151Z" fill="#1B1918"/>
<path fill-rule="evenodd" clip-rule="evenodd" d="M17.6604 71.6726C17.1183 77.3869 16.1002 81.8929 13.0747 86.0494C12.9483 85.9593 12.8143 85.8703 12.6754 85.7819L11.3029 88.2209C11.1724 88.6175 11.3324 88.9721 11.7825 89.284C11.4377 89.1416 11.0929 88.9991 10.7479 88.857C10.6853 89.5014 10.9591 89.9112 11.3275 90.2557C10.9564 90.1065 10.5854 89.9571 10.2146 89.8076C10.1665 90.4263 10.3111 90.8965 10.6487 91.2179C10.3452 91.132 10.0414 91.0466 9.73759 90.9608C9.68279 91.346 9.87699 91.7453 10.1847 92.1514C9.90889 91.9993 9.63349 91.8471 9.35789 91.6955C9.23329 92.1887 9.3042 92.655 9.8053 93.0604C9.4914 92.9406 9.17729 92.8206 8.86349 92.7009C8.67379 93.1718 8.51159 93.6481 9.19789 94.2873C8.92919 94.1605 8.6603 94.0338 8.3913 93.907C8.2765 94.5578 8.50079 94.9477 8.77289 95.3001C8.49639 95.1092 8.21979 94.918 7.94319 94.7273C7.84069 95.3187 7.944 95.7889 8.1884 96.1764C7.9538 96.0478 7.7187 95.919 7.4838 95.7904C7.2772 96.4876 7.4768 96.76 7.7361 96.972C7.4991 96.9116 7.2623 96.8512 7.0257 96.7909C6.9904 97.2316 7.0841 97.5732 7.3062 97.8156C7.0765 97.6903 6.8473 97.5653 6.6178 97.4402C6.5077 97.7577 6.64849 98.1204 6.90369 98.5037C6.64209 98.2895 6.3803 98.0753 6.1185 97.861L5.37639 99.8816L3.8824 101.707L3.4711 101.348L4.9467 99.7705L5.80559 97.9177L4.77119 97.7067C6.73779 95.358 8.45909 92.1536 10.0563 88.5169L11.4443 85.0403C11.26 84.9265 11.0823 84.8116 10.9179 84.6946C11.9795 82.6006 12.6475 80.5459 13.0678 77.5614C14.8796 75.8399 16.4038 73.7948 17.6621 71.6383L17.6604 71.6726ZM10.9111 61.5854L10.8134 61.3868L10.956 61.54L10.9111 61.5854ZM10.219 60.7311L2.5264 56.0647L4.89519 52.9442C4.81339 52.7467 4.73739 52.5482 4.66649 52.3472C5.52829 54.1143 6.4409 55.7015 7.4529 57.1864C6.6964 56.1898 6.01879 55.1921 5.47229 54.1634L4.2827 55.7305L8.02519 58.0006C8.70639 58.9407 9.43299 59.8438 10.219 60.7311V60.7311ZM4.3376 51.3239L0 47.4159L5.83429 42.1591C5.35769 43.1321 4.9487 43.9895 4.64 44.8462L1.78769 47.4159L4.06969 49.4721C4.12019 50.04 4.2083 50.6527 4.3376 51.3239ZM34.4433 38.9574L41.5809 45.3885L37.204 49.3318C37.0816 49.8844 36.9142 50.4225 36.71 50.9492L39.0543 54.0375L31.5636 58.5812C32.3474 57.7417 32.9857 56.6468 33.7896 55.8426L33.8065 55.8208L37.2983 53.7027L36.155 52.1965C36.6791 51.1487 37.0354 50.1283 37.1854 49.1428C37.4185 44.8228 36.8803 41.79 34.4433 38.9574ZM31.1602 59.3258C31.0802 59.5253 30.993 59.7262 30.9015 59.927L31.1602 59.3258ZM28.5918 66.1249C28.3548 67.6611 28.2458 68.6518 28.3715 69.426C28.1337 68.6302 28.3025 67.4722 28.5918 66.1249ZM28.7653 76.3759L28.6559 76.3082C28.6873 76.541 28.7172 76.7727 28.7442 77.0024C29.1599 80.2953 29.8419 82.4725 30.969 84.6948C30.8048 84.8116 30.6269 84.9265 30.4426 85.0406L31.8298 88.5171C33.4274 92.1541 35.1491 95.358 37.1154 97.7064L36.0816 97.9177L36.94 99.7705L38.4158 101.349L38.0048 101.707L36.5113 99.8821L35.7685 97.861C35.5069 98.075 35.2448 98.29 34.9825 98.5032C35.2379 98.1199 35.38 97.758 35.2696 97.4395C35.0396 97.5656 34.8104 97.6915 34.5817 97.8154C34.804 97.5732 34.8961 97.2314 34.8615 96.7914C34.6252 96.851 34.3881 96.9111 34.1513 96.9722C34.4099 96.7597 34.6099 96.4866 34.4033 95.7909C34.1675 95.9187 33.9331 96.0473 33.698 96.1769C33.9434 95.7889 34.0468 95.3192 33.9442 94.7261C33.6669 94.918 33.3918 95.1094 33.1133 95.3001C33.3861 94.9484 33.6114 94.5578 33.4961 93.9058C33.2264 94.0338 32.9582 94.1602 32.688 94.2878C33.3758 93.6488 33.2136 93.171 33.023 92.7018C32.7103 92.8211 32.3952 92.9406 32.0814 93.0604C32.5825 92.6542 32.6539 92.1887 32.5297 91.6955C32.2536 91.8481 31.9778 91.999 31.7027 92.1509C32.0095 91.7455 32.2041 91.3465 32.1496 90.961C31.8458 91.0471 31.5427 91.132 31.2387 91.2182C31.5759 90.8965 31.7197 90.4265 31.6725 89.8081C31.301 89.9576 30.9305 90.1055 30.5599 90.2552C30.9273 89.9112 31.2011 89.5009 31.1388 88.8562C30.7945 88.9995 30.4495 89.1409 30.1045 89.2849C30.5543 88.9711 30.7143 88.618 30.5827 88.2212L29.2107 85.7824C29.0718 85.8698 28.9379 85.9588 28.8112 86.0487C25.9499 82.6482 23.5431 78.6509 23.8022 70.6054L23.8155 70.1399L23.8775 70.3436C25.1389 72.8517 26.6358 74.9668 28.65 76.2174L28.7653 76.3759ZM36.5873 42.4999C37.1395 43.9159 37.447 45.4803 37.447 47.1261C37.447 47.2547 37.444 47.3828 37.439 47.5097L39.7933 45.3885L36.5873 42.4999Z" fill="#B1C900"/>
<path fill-rule="evenodd" clip-rule="evenodd" d="M28.7652 76.3759L28.6499 76.2175C26.6357 74.9669 25.1388 72.8518 23.8774 70.3437L23.8154 70.14C23.9761 64.5067 24.3619 59.9563 25.0836 54.0425L25.0906 53.9831L25.0901 53.923C25.0687 51.667 26.1529 50.1753 26.8363 48.1341C27.6169 45.8026 27.6852 42.3894 26.9963 40.0578L26.721 39.1251L25.9909 39.39L26.0967 36.3911C26.2714 36.3259 26.4373 36.2682 26.6474 36.1246C26.9431 35.9224 27.0537 35.8238 27.4255 35.7899C27.3092 35.6657 32.6743 37.0243 34.3695 38.8912L34.4431 38.9575C36.8801 41.7901 37.4183 44.8229 37.1852 49.1429C37.0352 50.1284 36.6789 51.1488 36.1548 52.1966L36.1518 52.1926C35.5108 53.4503 34.6706 54.6584 33.7231 55.8716L33.8065 55.821L33.7896 55.8429C32.9857 56.6471 32.3474 57.742 31.5636 58.5815L31.4166 58.6706L31.3864 58.7064C31.3199 58.9113 31.2434 59.1185 31.1602 59.3261L30.9015 59.9272C30.0372 61.8219 28.7543 63.7356 28.7543 65.1012C28.6954 65.4678 28.6407 65.8079 28.5918 66.1252C28.3025 67.4725 28.1337 68.6305 28.3715 69.4263C28.5837 70.7357 29.4662 71.4268 31.5283 73.0965C31.6517 73.8837 31.5499 74.7134 31.7692 75.5004C31.851 75.7934 31.8944 76.3404 31.9469 76.6076C32.0274 77.0194 32.2676 77.4648 32.2676 77.6471V77.7982C32.2676 78.034 32.1297 78.2355 32.0411 78.4029L28.7652 76.3759Z" fill="#1B1918"/>
<path fill-rule="evenodd" clip-rule="evenodd" d="M13.0677 77.5614L13.0798 77.4745L9.55865 79.6532C9.47005 79.4861 9.33165 79.2843 9.33165 79.0485V78.8974C9.33165 78.7153 9.57235 78.2696 9.65265 77.8578C9.70485 77.5908 9.74835 77.0438 9.83005 76.7508C13.2869 73.0483 13.108 71.8559 12.8449 66.2064C12.8449 64.9495 11.7581 63.2864 10.911 61.5854L10.9559 61.5401L10.8134 61.3869C10.7704 61.2984 10.7277 61.2098 10.6868 61.1214L10.5038 60.9039L10.2189 60.7312C9.43295 59.8439 8.70635 58.9408 8.02515 58.0007L8.14635 58.0742C7.90885 57.7776 7.67765 57.4823 7.45285 57.1864C6.44085 55.7015 5.52824 54.1143 4.66644 52.3472C4.55034 52.0188 4.44844 51.6857 4.36354 51.3475L4.33755 51.324C4.20825 50.6528 4.12014 50.0401 4.06964 49.4722L4.07365 49.4762C4.06135 49.2745 4.05444 49.0701 4.05444 48.8642C4.05444 47.4242 4.28884 46.046 4.71774 44.7758L4.63954 44.8464C4.94824 43.9897 5.35725 43.1323 5.83385 42.1593L6.15974 41.8654C7.24294 40.2733 12.6889 35.8273 14.9512 37.3753C15.1615 37.5188 15.3278 37.5764 15.502 37.6414L15.6079 40.6409L14.8777 40.3754L14.6023 41.3082C14.1159 42.9548 13.8922 44.7852 14.1364 46.4693C14.1384 47.4821 14.644 48.4259 14.965 49.3844C15.6484 51.4261 16.5299 52.9179 16.5085 55.1734L16.508 55.2337L16.515 55.293C17.2212 61.0804 17.5214 65.8451 17.6642 71.5726L17.6613 71.6384C16.403 73.7949 14.8787 75.84 13.0669 77.5615L13.0677 77.5614Z" fill="#1B1918"/>
<path fill-rule="evenodd" clip-rule="evenodd" d="M20.7339 86.8689C18.6958 82.6013 18.0357 77.1821 17.7302 71.5006L17.6604 71.6726L17.6654 71.5724L17.5134 65.4905L17.4888 65.417L17.4938 65.416C17.3723 61.5761 17.2483 57.7594 16.8174 54.2295C16.8525 50.5584 14.7248 48.5876 14.7505 45.4514L14.8364 45.13L19.8733 41.7522L26.2912 44.8388L26.719 45.4514C26.7436 48.5876 24.6161 50.5584 24.6509 54.2295C24.2235 57.7313 24.0972 61.5152 23.9768 65.3246L23.9496 65.44L23.8019 70.6055L23.7852 70.561C23.5013 76.5826 22.885 82.3668 20.7337 86.8691L20.7339 86.8689Z" fill="#B1C900"/>
<path fill-rule="evenodd" clip-rule="evenodd" d="M15.9183 37.8693L19.9544 39.7604L25.8046 36.4233L25.5457 43.7646L19.9174 41.0579L15.8813 43.7646L15.9183 37.8693Z" fill="#1B1918"/>
</svg>
