<svg width="8" height="8" viewBox="0 0 8 8" fill="none" xmlns="http://www.w3.org/2000/svg">
<g clip-path="url(#clip0_43_775)">
<path d="M1.26295 6.72364C1.22861 6.91912 1.42145 7.0719 1.5914 6.98473L3.52422 5.99146L5.4566 6.98473C5.62655 7.0719 5.81939 6.91912 5.78505 6.72408L5.41961 4.64157L6.97027 3.164C7.11557 3.02575 7.04072 2.77303 6.84611 2.74573L4.68963 2.4393L3.72807 0.534216C3.70975 0.495599 3.68085 0.462972 3.64473 0.440125C3.6086 0.417279 3.56674 0.405151 3.524 0.405151C3.48126 0.405151 3.43939 0.417279 3.40327 0.440125C3.36715 0.462972 3.33825 0.495599 3.31993 0.534216L2.35836 2.43974L0.201883 2.74617C0.00772029 2.77347 -0.0675672 3.02619 0.0772842 3.16444L1.62838 4.64201L1.26295 6.72452V6.72364ZM3.42251 5.50539L1.79965 6.33928L2.1052 4.5971C2.11236 4.557 2.10956 4.51575 2.09705 4.47698C2.08453 4.43821 2.06269 4.40311 2.03344 4.37476L0.753991 3.15519L2.538 2.90159C2.57494 2.89601 2.60998 2.88156 2.64011 2.85948C2.67025 2.83739 2.69458 2.80834 2.71103 2.77479L3.52334 1.16425L4.33653 2.77479C4.35298 2.80834 4.37731 2.83739 4.40745 2.85948C4.43758 2.88156 4.47262 2.89601 4.50956 2.90159L6.29357 3.15475L5.01412 4.37432C4.9848 4.40271 4.96291 4.43789 4.9504 4.47674C4.93788 4.51559 4.93512 4.55693 4.94235 4.5971L5.24791 6.33928L3.62504 5.50539C3.59366 5.48921 3.55887 5.48077 3.52356 5.48077C3.48825 5.48077 3.45346 5.48921 3.42207 5.50539H3.42251Z" fill="white"/>
</g>
<defs>
<clipPath id="clip0_43_775">
<rect width="7.04444" height="7.04444" fill="white" transform="translate(0.00119019 0.185547)"/>
</clipPath>
</defs>
</svg>
