<svg width="45" height="8" viewBox="0 0 45 8" fill="none" xmlns="http://www.w3.org/2000/svg">
<g clip-path="url(#clip0_43_768)">
<path d="M2.11801 6.98481C1.94806 7.07198 1.75522 6.91921 1.78956 6.72416L2.15499 4.64165L0.603896 3.16408C0.459044 3.02583 0.534332 2.77311 0.728494 2.74581L2.88497 2.43938L3.84654 0.534299C3.93328 0.36259 4.16794 0.36259 4.25468 0.534299L5.21625 2.43938L7.37273 2.74581C7.56689 2.77311 7.64218 3.02583 7.49688 3.16408L5.94623 4.64165L6.31166 6.72416C6.346 6.91921 6.15316 7.07198 5.98321 6.98481L4.04995 5.99154L2.11757 6.98481H2.11801Z" fill="white"/>
</g>
<g clip-path="url(#clip1_43_768)">
<path d="M11.2757 6.98481C11.1057 7.07198 10.9129 6.91921 10.9472 6.72416L11.3126 4.64165L9.76155 3.16408C9.6167 3.02583 9.69199 2.77311 9.88615 2.74581L12.0426 2.43938L13.0042 0.534299C13.0909 0.36259 13.3256 0.36259 13.4123 0.534299L14.3739 2.43938L16.5304 2.74581C16.7245 2.77311 16.7998 3.02583 16.6545 3.16408L15.1039 4.64165L15.4693 6.72416C15.5037 6.91921 15.3108 7.07198 15.1409 6.98481L13.2076 5.99154L11.2752 6.98481H11.2757Z" fill="white"/>
</g>
<g clip-path="url(#clip2_43_768)">
<path d="M20.4334 6.98481C20.2634 7.07198 20.0706 6.91921 20.1049 6.72416L20.4704 4.64165L18.9193 3.16408C18.7744 3.02583 18.8497 2.77311 19.0439 2.74581L21.2003 2.43938L22.1619 0.534299C22.2486 0.36259 22.4833 0.36259 22.57 0.534299L23.5316 2.43938L25.6881 2.74581C25.8823 2.77311 25.9575 3.02583 25.8123 3.16408L24.2616 4.64165L24.627 6.72416C24.6614 6.91921 24.4685 7.07198 24.2986 6.98481L22.3653 5.99154L20.4329 6.98481H20.4334Z" fill="white"/>
</g>
<g clip-path="url(#clip3_43_768)">
<path d="M29.263 6.72364C29.2286 6.91913 29.4215 7.0719 29.5914 6.98473L31.5242 5.99146L33.4566 6.98473C33.6265 7.0719 33.8194 6.91912 33.785 6.72408L33.4196 4.64157L34.9703 3.164C35.1156 3.02575 35.0407 2.77303 34.8461 2.74573L32.6896 2.4393L31.7281 0.534216C31.7097 0.495599 31.6809 0.462972 31.6447 0.440125C31.6086 0.417279 31.5667 0.405151 31.524 0.405151C31.4813 0.405151 31.4394 0.417279 31.4033 0.440125C31.3671 0.462972 31.3382 0.495599 31.3199 0.534216L30.3584 2.43974L28.2019 2.74617C28.0077 2.77347 27.9324 3.02619 28.0773 3.16444L29.6284 4.64201L29.263 6.72452V6.72364ZM31.4225 5.50539L29.7997 6.33928L30.1052 4.5971C30.1124 4.557 30.1096 4.51575 30.097 4.47698C30.0845 4.43821 30.0627 4.40311 30.0334 4.37476L28.754 3.15519L30.538 2.90159C30.5749 2.89601 30.61 2.88156 30.6401 2.85948C30.6702 2.83739 30.6946 2.80834 30.711 2.77479L31.5233 1.16425L32.3365 2.77479C32.353 2.80834 32.3773 2.83739 32.4074 2.85948C32.4376 2.88156 32.4726 2.89601 32.5096 2.90159L34.2936 3.15475L33.0141 4.37432C32.9848 4.40271 32.9629 4.43789 32.9504 4.47674C32.9379 4.51559 32.9351 4.55693 32.9424 4.5971L33.2479 6.33928L31.625 5.50539C31.5937 5.48921 31.5589 5.48077 31.5236 5.48077C31.4883 5.48077 31.4535 5.48921 31.4221 5.50539H31.4225Z" fill="white"/>
</g>
<g clip-path="url(#clip4_43_768)">
<path d="M38.4207 6.72364C38.3863 6.91913 38.5792 7.0719 38.7491 6.98473L40.6819 5.99146L42.6143 6.98473C42.7843 7.0719 42.9771 6.91912 42.9428 6.72408L42.5773 4.64157L44.128 3.164C44.2733 3.02575 44.1984 2.77303 44.0038 2.74573L41.8473 2.4393L40.8858 0.534216C40.8675 0.495599 40.8386 0.462972 40.8024 0.440125C40.7663 0.417279 40.7245 0.405151 40.6817 0.405151C40.639 0.405151 40.5971 0.417279 40.561 0.440125C40.5249 0.462972 40.496 0.495599 40.4776 0.534216L39.5161 2.43974L37.3596 2.74617C37.1654 2.77347 37.0901 3.02619 37.235 3.16444L38.7861 4.64201L38.4207 6.72452V6.72364ZM40.5802 5.50539L38.9574 6.33928L39.2629 4.5971C39.2701 4.557 39.2673 4.51575 39.2548 4.47698C39.2422 4.43821 39.2204 4.40311 39.1912 4.37476L37.9117 3.15519L39.6957 2.90159C39.7327 2.89601 39.7677 2.88156 39.7978 2.85948C39.828 2.83739 39.8523 2.80834 39.8687 2.77479L40.6811 1.16425L41.4942 2.77479C41.5107 2.80834 41.535 2.83739 41.5652 2.85948C41.5953 2.88156 41.6303 2.89601 41.6673 2.90159L43.4513 3.15475L42.1718 4.37432C42.1425 4.40271 42.1206 4.43789 42.1081 4.47674C42.0956 4.51559 42.0928 4.55693 42.1001 4.5971L42.4056 6.33928L40.7828 5.50539C40.7514 5.48921 40.7166 5.48077 40.6813 5.48077C40.646 5.48077 40.6112 5.48921 40.5798 5.50539H40.5802Z" fill="white"/>
</g>
<defs>
<clipPath id="clip0_43_768">
<rect width="7.04444" height="7.04444" fill="white" transform="translate(0.527832 0.185547)"/>
</clipPath>
<clipPath id="clip1_43_768">
<rect width="7.04444" height="7.04444" fill="white" transform="translate(9.68549 0.185547)"/>
</clipPath>
<clipPath id="clip2_43_768">
<rect width="7.04444" height="7.04444" fill="white" transform="translate(18.8432 0.185547)"/>
</clipPath>
<clipPath id="clip3_43_768">
<rect width="7.04444" height="7.04444" fill="white" transform="translate(28.0012 0.185547)"/>
</clipPath>
<clipPath id="clip4_43_768">
<rect width="7.04444" height="7.04444" fill="white" transform="translate(37.1589 0.185547)"/>
</clipPath>
</defs>
</svg>
