<?xml version="1.0" standalone="no"?>
<!DOCTYPE svg PUBLIC "-//W3C//DTD SVG 20010904//EN"
 "http://www.w3.org/TR/2001/REC-SVG-20010904/DTD/svg10.dtd">
<svg version="1.0" xmlns="http://www.w3.org/2000/svg"
 width="1632.000000pt" height="1632.000000pt" viewBox="0 0 1632.000000 1632.000000"
 preserveAspectRatio="xMidYMid meet">
<metadata>
Created by potrace 1.14, written by Peter Selinger 2001-2017
</metadata>
<g transform="translate(0.000000,1632.000000) scale(0.100000,-0.100000)"
fill="#000000" stroke="none">
<path d="M12174 16292 c-23 -15 -56 -49 -73 -75 -31 -46 -135 -125 -188 -141
-13 -4 -23 -12 -23 -17 0 -5 -5 -9 -12 -9 -16 0 -162 -72 -166 -82 -2 -4 -8
-8 -14 -8 -5 0 -29 -13 -53 -30 -24 -16 -48 -30 -54 -30 -6 0 -11 -4 -11 -8 0
-5 -12 -15 -27 -23 -16 -8 -30 -17 -33 -20 -3 -3 -48 -35 -100 -70 -52 -35
-97 -66 -100 -69 -7 -7 -98 -70 -200 -138 -47 -31 -87 -60 -90 -63 -3 -4 -50
-37 -105 -75 -86 -58 -152 -105 -240 -168 -11 -8 -72 -51 -135 -95 -63 -44
-120 -84 -125 -89 -6 -5 -24 -17 -40 -28 -17 -10 -37 -24 -45 -31 -8 -7 -62
-46 -120 -87 -58 -42 -114 -83 -125 -91 -11 -9 -32 -24 -47 -33 -16 -9 -28
-20 -28 -24 0 -4 -6 -8 -14 -8 -8 0 -16 -3 -18 -8 -1 -4 -23 -23 -48 -42 -25
-19 -49 -38 -55 -43 -78 -60 -345 -291 -345 -297 0 -4 -19 -20 -42 -36 -74
-49 -134 -99 -277 -230 -234 -214 -384 -365 -516 -519 -66 -77 -87 -137 -72
-208 11 -52 18 -64 41 -75 19 -8 26 -7 41 11 81 96 121 143 125 147 3 3 28 32
55 65 87 105 118 139 179 195 32 30 100 96 151 145 50 50 109 104 129 120 21
17 82 73 135 125 53 52 129 124 170 160 40 36 78 70 85 75 6 6 38 33 71 60 33
28 62 52 65 55 3 3 32 28 65 55 33 28 65 55 71 60 6 6 26 21 44 35 31 23 41
32 98 81 12 10 26 19 31 19 5 0 11 3 13 8 5 13 85 72 97 72 7 0 14 7 17 15 4
8 12 15 19 15 8 0 20 6 27 13 7 7 31 26 53 42 22 17 45 35 50 41 6 6 51 42
100 79 50 38 92 72 93 77 2 4 8 6 13 2 5 -3 9 -2 9 3 0 4 12 14 28 20 21 10
103 70 217 160 6 5 35 26 65 48 30 22 60 43 65 48 31 24 131 97 175 127 28 19
57 40 63 45 32 26 77 55 87 55 5 0 10 4 10 9 0 5 9 13 20 16 11 3 26 12 32 18
7 7 38 28 68 47 30 19 57 38 58 42 2 5 8 8 12 8 9 0 123 70 146 89 10 8 44 27
172 96 88 48 157 88 169 101 9 8 36 13 76 13 70 -1 120 17 157 56 20 21 25 38
27 83 1 31 -4 64 -10 73 -13 18 -86 70 -96 68 -3 0 -25 -13 -47 -27z"/>
<path d="M8137 13734 c-1 -1 -33 -4 -71 -7 -42 -3 -74 -10 -80 -18 -7 -8 -30
-14 -56 -14 -25 0 -67 -8 -93 -17 -26 -10 -62 -20 -80 -22 -18 -3 -32 -5 -32
-6 0 -1 -13 -4 -30 -6 -16 -1 -42 -5 -57 -8 -28 -4 -90 -14 -140 -22 -16 -2
-43 -7 -60 -10 -103 -18 -138 -20 -218 -14 -19 2 -55 -1 -80 -5 -25 -4 -57 -8
-72 -8 -26 -1 -55 -38 -43 -57 3 -5 1 -11 -4 -14 -5 -4 -8 -14 -7 -23 2 -11
24 -23 67 -37 35 -10 129 -41 209 -68 80 -27 150 -50 156 -51 6 -2 22 -10 35
-18 l23 -16 -35 -33 c-73 -73 -67 -115 25 -174 101 -65 135 -61 172 19 24 54
48 71 89 66 70 -8 156 -72 186 -139 12 -26 36 -67 54 -92 32 -45 85 -152 100
-200 4 -14 16 -40 27 -58 14 -23 21 -56 24 -115 2 -45 6 -93 8 -107 22 -148
22 -149 35 -182 6 -16 9 -28 6 -28 -2 0 4 -17 13 -37 63 -139 107 -121 223 92
112 206 110 202 125 240 9 26 15 47 16 63 1 6 4 12 7 12 7 -1 91 -115 91 -124
0 -3 7 -14 16 -25 43 -50 328 -461 323 -464 -2 -2 -67 -15 -144 -31 -77 -15
-144 -29 -150 -31 -71 -16 -116 -21 -265 -31 -107 -7 -390 -10 -396 -5 -2 2
-19 5 -36 7 -52 4 -108 15 -168 31 -30 8 -71 19 -90 23 -32 8 -276 92 -310
107 -8 3 -21 7 -29 9 -7 1 -36 11 -65 22 -28 11 -105 37 -171 57 -66 21 -177
57 -247 81 -172 58 -276 87 -363 99 -11 2 -20 4 -20 5 0 1 -13 3 -30 4 -57 6
-155 21 -235 36 -63 12 -112 6 -131 -16 -11 -14 -15 -166 -4 -234 2 -14 4 -28
4 -33 2 -15 108 -56 186 -71 106 -21 115 -23 225 -64 8 -3 17 -6 20 -7 3 -1
18 -7 33 -13 16 -7 31 -12 34 -12 3 0 19 -6 36 -14 60 -27 267 -106 278 -106
6 0 25 -6 42 -14 18 -7 66 -23 107 -36 41 -12 83 -26 92 -31 10 -5 26 -9 36
-9 10 0 22 -3 26 -7 4 -5 12 -9 17 -9 5 -1 11 -3 14 -4 3 -1 8 -3 13 -5 4 -1
14 -4 22 -8 109 -42 457 -151 525 -163 16 -3 34 -9 41 -14 6 -6 13 -8 16 -5 3
3 32 -1 64 -8 83 -20 578 -15 674 6 13 3 66 14 110 23 30 5 97 33 170 70 41
21 77 38 80 39 30 9 60 28 85 54 65 69 96 70 136 5 19 -31 163 -218 221 -289
10 -11 63 -76 118 -145 56 -69 120 -147 143 -174 69 -81 113 -134 132 -158 24
-30 272 -328 319 -383 28 -33 146 -155 261 -271 213 -215 259 -263 352 -370
73 -84 129 -139 166 -166 44 -31 63 -56 83 -108 23 -60 51 -99 79 -110 36 -14
144 5 166 29 25 26 24 82 -1 114 -11 13 -48 40 -82 57 -95 50 -100 53 -130 84
-18 19 -24 34 -18 41 12 15 0 31 -30 40 -62 18 -229 167 -415 370 -121 132
-133 145 -185 206 -25 29 -63 74 -85 99 -22 26 -53 64 -70 84 -16 21 -35 43
-40 50 -6 6 -34 40 -63 76 -29 36 -57 70 -62 77 -6 7 -56 70 -112 140 -56 70
-104 130 -107 133 -3 3 -18 21 -33 42 -15 20 -33 42 -40 50 -11 11 -72 85
-132 158 -6 9 -42 60 -79 115 -36 55 -81 117 -100 137 -18 21 -49 54 -68 75
-36 40 -93 128 -103 160 -4 14 22 44 109 127 77 73 130 133 161 183 25 40 49
73 53 73 10 0 7 72 -3 88 -13 21 -41 13 -106 -29 -50 -32 -162 -117 -238 -180
-17 -14 -94 -49 -109 -49 -7 0 -19 15 -28 33 -14 30 -36 59 -88 117 -36 41
-90 121 -121 180 -16 30 -81 131 -144 224 -171 254 -172 256 -168 372 2 58 -3
122 -11 163 -8 36 -17 77 -19 91 -19 104 -126 335 -174 377 -14 12 -56 38 -93
58 -59 32 -78 38 -139 39 -38 0 -70 0 -71 0z"/>
<path d="M6217 13673 c-29 -15 -72 -70 -103 -130 -24 -49 -29 -138 -12 -202 6
-20 12 -45 13 -56 5 -36 55 -194 86 -276 55 -144 129 -269 158 -269 16 0 61
53 54 64 -4 6 -8 16 -8 21 0 6 -8 25 -18 43 -10 17 -15 32 -11 32 4 0 1 7 -6
15 -7 8 -9 15 -4 15 5 0 5 4 -1 8 -9 6 -30 54 -39 87 -2 6 -6 21 -10 35 -4 14
-8 64 -10 111 -3 84 -2 87 23 101 27 15 83 17 136 4 17 -3 39 -8 50 -10 29 -6
188 -57 200 -64 6 -4 15 -7 20 -8 6 -1 62 -21 125 -44 63 -23 124 -43 136 -44
11 -2 25 -6 31 -9 6 -4 44 -9 85 -13 58 -5 82 -2 106 10 32 16 81 76 63 76 -6
0 -11 6 -11 14 0 17 -25 26 -78 31 -81 7 -131 18 -207 47 -44 17 -81 35 -83
40 -2 4 -8 8 -13 8 -23 0 -205 138 -294 223 -54 52 -168 127 -209 139 -57 15
-141 16 -169 1z"/>
<path d="M5877 12336 c-80 -57 -152 -140 -245 -284 -18 -28 -33 -54 -32 -58 1
-4 -3 -10 -10 -14 -6 -4 -13 -13 -14 -21 -2 -8 -9 -27 -15 -44 -7 -16 -14 -37
-16 -46 -2 -9 -12 -47 -23 -85 -66 -231 -75 -383 -23 -397 10 -2 32 1 49 9 30
12 36 22 46 84 2 14 11 41 20 61 8 20 18 51 21 69 10 56 59 148 135 253 48 66
64 80 130 113 111 57 112 58 104 189 -4 61 -7 124 -6 142 2 62 -55 76 -121 29z"/>
<path d="M6354 11952 c-16 -8 -40 -15 -55 -14 -23 0 -29 -6 -43 -42 -9 -23
-23 -51 -31 -62 -63 -79 -123 -190 -131 -242 -4 -23 -18 -52 -36 -71 -21 -22
-30 -43 -33 -74 -1 -23 -4 -42 -5 -42 -1 0 -3 -9 -5 -20 -1 -11 -11 -51 -22
-90 -21 -71 -23 -110 -10 -132 4 -6 4 -14 -1 -17 -8 -5 -8 -35 2 -167 10 -132
50 -220 181 -396 17 -22 56 -60 87 -84 31 -24 57 -47 57 -51 1 -5 5 -8 10 -8
5 0 51 -27 103 -59 106 -67 331 -182 393 -201 22 -7 45 -16 50 -20 10 -7 129
-37 155 -39 88 -6 160 -4 160 3 0 5 3 7 6 4 3 -4 20 -2 37 4 18 5 37 10 42 11
6 2 16 6 23 10 6 5 12 5 12 2 0 -4 36 19 81 49 44 31 84 56 89 56 5 0 10 4 12
8 2 5 39 33 83 62 44 29 82 56 85 60 3 4 12 10 20 14 71 34 145 95 300 246 51
50 130 149 130 164 0 3 16 30 35 61 20 30 32 55 28 55 -4 0 -3 4 3 8 13 9 67
138 90 217 20 70 24 236 6 257 -7 9 -25 13 -44 11 -157 -16 -375 -9 -471 15
-4 1 -19 4 -35 8 -15 3 -34 8 -42 10 -8 3 -15 5 -15 4 0 -1 -18 5 -40 13 -97
36 -239 72 -267 68 -10 -1 -18 2 -18 7 0 9 -195 109 -415 212 -60 29 -130 61
-155 73 -25 12 -47 22 -50 22 -3 1 -23 9 -45 20 -22 10 -44 19 -50 21 -5 1
-39 15 -73 29 -103 43 -146 49 -188 27z"/>
<path d="M8190 10587 c-19 -5 -37 -12 -40 -16 -11 -14 -86 -58 -111 -64 -22
-6 -25 -12 -26 -49 0 -24 -3 -132 -7 -240 -3 -109 -5 -198 -4 -198 2 0 27 9
55 20 63 24 58 31 101 -130 33 -120 39 -149 48 -215 2 -22 7 -50 10 -63 17
-80 22 -327 11 -507 -8 -122 -11 -144 -33 -260 -29 -146 -44 -207 -55 -219 -5
-6 -9 -18 -9 -28 0 -16 -42 -130 -75 -203 -136 -300 -189 -482 -200 -680 -4
-55 -8 -113 -10 -130 -10 -76 -14 -114 -19 -165 -3 -30 -8 -66 -11 -80 -3 -14
-7 -59 -10 -100 -3 -41 -7 -84 -9 -95 -2 -11 -7 -49 -10 -85 -4 -36 -9 -81
-11 -100 -3 -19 -7 -64 -10 -100 -3 -36 -8 -76 -10 -90 -2 -14 -7 -63 -10
-109 -9 -114 -13 -163 -21 -246 -8 -85 -10 -112 -18 -240 -10 -147 -12 -165
-20 -172 -3 -3 -4 47 -1 113 3 65 7 180 10 254 6 170 13 332 20 437 11 174 15
241 21 308 3 39 8 95 9 125 2 30 4 55 5 55 1 0 3 20 5 45 3 47 13 151 21 210
2 19 6 76 9 125 5 93 11 158 20 210 3 17 7 40 9 53 1 12 6 25 9 29 4 3 7 18 7
33 0 15 3 30 8 34 4 4 7 11 8 14 2 25 18 79 26 90 6 6 8 12 5 12 -4 0 5 30 20
68 14 37 26 72 28 77 2 9 8 25 37 93 6 15 12 29 12 32 5 20 41 107 49 118 5 6
7 12 4 12 -3 0 5 33 19 73 14 39 27 81 30 92 19 86 35 191 38 245 3 61 1 68
-33 116 -21 31 -49 57 -68 65 -18 7 -33 16 -33 21 0 4 -6 8 -13 8 -6 0 -46 17
-87 37 -41 20 -77 37 -80 38 -3 0 -16 7 -30 15 -14 8 -27 15 -30 15 -3 0 -36
16 -75 34 -159 77 -425 205 -495 238 -41 20 -78 41 -82 47 -4 6 -8 7 -8 3 0
-4 -10 -2 -22 5 -30 16 -40 17 -58 2 -8 -6 -19 -13 -25 -15 -21 -8 -160 -105
-168 -116 -4 -7 -12 -13 -17 -13 -10 0 -425 -276 -448 -297 -7 -7 -17 -13 -22
-13 -5 0 -15 -6 -22 -13 -7 -7 -29 -23 -50 -35 -20 -12 -38 -29 -41 -36 -10
-26 1 -201 18 -276 9 -41 18 -82 19 -90 2 -8 6 -22 9 -30 3 -8 15 -42 26 -75
11 -33 38 -109 61 -170 59 -156 119 -323 125 -348 2 -12 14 -58 25 -102 11
-44 22 -100 24 -125 3 -25 5 -45 6 -45 1 0 3 -29 5 -65 5 -81 14 -191 20 -250
3 -25 7 -70 10 -100 3 -30 7 -80 10 -110 16 -165 28 -342 29 -437 1 -40 3 -73
6 -73 3 0 6 -30 7 -67 1 -38 4 -133 8 -213 3 -80 8 -194 10 -255 5 -132 16
-409 19 -482 1 -29 -1 -53 -4 -53 -4 0 -8 37 -10 83 -1 45 -4 98 -6 117 -1 19
-6 85 -9 145 -4 61 -8 126 -10 145 -2 19 -7 76 -10 125 -3 50 -8 108 -10 130
-2 22 -6 74 -10 115 -3 41 -8 98 -11 125 -2 28 -6 77 -9 110 -2 33 -7 76 -9
95 -3 19 -8 62 -11 95 -3 33 -8 78 -11 100 -4 22 -8 65 -9 95 -2 30 -4 55 -5
55 -2 0 -5 19 -14 100 -4 33 -9 74 -11 90 -3 17 -4 54 -4 83 0 28 0 58 0 65 0
17 -15 115 -26 167 -3 14 -7 36 -10 49 -2 13 -12 49 -21 80 -9 31 -17 61 -19
66 -1 6 -5 17 -8 25 -4 8 -20 53 -37 100 -28 76 -79 212 -100 265 -4 11 -18
49 -30 85 -11 36 -25 74 -30 85 -16 34 -51 134 -49 137 1 2 -3 12 -9 24 -6 11
-13 32 -16 45 -3 13 -7 35 -10 48 -31 142 -37 491 -11 616 3 11 7 36 10 55 2
19 7 44 9 55 23 107 40 177 53 215 8 25 17 56 19 68 3 13 10 37 17 52 l12 29
40 -15 c80 -30 74 -40 69 98 -3 67 -6 166 -9 218 -2 52 -4 104 -4 115 -1 15
-22 31 -83 62 -94 48 -118 54 -203 53 -82 0 -276 -51 -312 -82 -7 -6 -13 -8
-13 -5 0 5 -74 -32 -175 -87 -34 -19 -216 -137 -225 -146 -3 -3 -32 -25 -65
-50 -73 -54 -91 -69 -121 -97 -13 -13 -26 -23 -29 -23 -8 0 -208 -202 -290
-293 -33 -36 -63 -66 -67 -67 -4 0 -22 -15 -40 -32 -18 -18 -66 -62 -107 -98
-41 -36 -86 -76 -100 -90 -14 -14 -47 -43 -72 -65 -95 -84 -213 -191 -240
-218 -16 -16 -29 -27 -29 -24 0 2 -22 -17 -48 -42 -26 -25 -80 -75 -120 -110
-40 -35 -88 -79 -107 -96 l-34 -32 76 -69 c42 -38 85 -77 97 -87 12 -10 54
-49 95 -85 41 -37 97 -87 124 -112 28 -25 70 -63 93 -85 23 -22 64 -59 91 -82
119 -104 113 -96 159 -231 24 -70 42 -132 39 -139 -3 -11 -162 -221 -175 -233
-3 -3 -18 -23 -33 -46 -15 -22 -35 -49 -45 -60 -9 -10 -38 -48 -64 -82 -45
-61 -52 -92 -22 -92 8 0 14 -4 14 -8 0 -4 12 -13 28 -20 15 -6 45 -23 67 -37
22 -14 47 -28 55 -32 8 -4 17 -9 20 -12 3 -4 93 -59 200 -124 107 -65 202
-123 210 -128 155 -96 363 -219 371 -219 5 0 9 -4 9 -9 0 -5 8 -11 18 -14 23
-8 75 -40 84 -52 5 -7 8 -7 8 0 0 6 3 6 8 -1 4 -5 36 -27 72 -49 36 -21 74
-47 85 -59 18 -18 191 -342 276 -516 31 -64 81 -200 73 -200 -2 0 0 -9 6 -19
5 -11 12 -57 14 -103 32 -554 27 -780 -20 -963 -9 -33 -17 -67 -19 -76 -3 -15
-43 -111 -67 -161 -7 -16 -16 -28 -20 -28 -5 0 -8 -6 -8 -13 0 -13 -90 -149
-116 -175 -8 -7 -14 -16 -14 -20 0 -4 -12 -21 -28 -37 -15 -17 -49 -57 -77
-90 -27 -32 -63 -72 -78 -88 -35 -36 -44 -58 -51 -132 -7 -66 -24 -141 -38
-168 -25 -49 -30 -112 -11 -156 7 -19 16 -37 18 -39 4 -5 116 56 125 67 3 4
28 20 55 36 28 16 82 49 120 74 39 25 72 46 75 46 3 0 25 14 50 30 25 16 61
38 80 48 19 11 41 27 48 36 11 14 12 8 7 -34 -5 -52 -13 -102 -21 -145 -15
-79 -23 -118 -28 -140 -3 -14 -11 -50 -17 -80 -6 -30 -18 -80 -27 -110 -9 -30
-16 -57 -17 -60 -9 -43 -18 -77 -23 -84 -5 -8 -68 -184 -76 -211 -1 -5 -11
-30 -22 -55 -10 -25 -18 -48 -16 -52 1 -5 -2 -8 -8 -8 -5 0 -10 -4 -10 -9 0
-6 -16 -44 -36 -85 l-37 -76 24 -20 c13 -10 29 -19 36 -20 6 0 14 -4 18 -9 3
-5 -30 -99 -74 -208 -43 -109 -82 -207 -86 -218 -5 -11 -7 -23 -7 -28 1 -4 -2
-7 -8 -7 -6 0 -9 -3 -8 -7 0 -5 -2 -17 -7 -28 -27 -69 -101 -236 -146 -330
-29 -60 -53 -112 -54 -115 -2 -6 -76 -154 -99 -195 -9 -16 -16 -36 -16 -42 0
-7 -3 -13 -7 -13 -5 0 -26 -36 -48 -80 -21 -44 -43 -80 -47 -80 -4 0 -8 -9 -8
-19 0 -11 -5 -23 -10 -26 -6 -4 -22 -27 -36 -53 -30 -56 -56 -102 -66 -117 -4
-5 -53 -77 -108 -160 -55 -82 -128 -185 -162 -228 -33 -42 -59 -79 -57 -81 2
-3 22 -7 44 -11 22 -3 56 -9 76 -13 l37 -7 -23 -50 c-12 -27 -23 -54 -25 -60
-2 -5 -15 -32 -29 -60 -14 -27 -26 -52 -27 -55 -10 -43 -115 -171 -240 -294
l-30 -30 33 -30 c20 -16 38 -25 42 -20 58 63 241 299 241 310 0 8 8 33 19 57
10 23 33 83 51 132 19 50 36 93 39 97 3 4 20 -5 38 -20 53 -46 73 -62 73 -59
0 1 -9 25 -19 53 -11 28 -18 59 -16 70 2 10 4 22 4 26 1 4 21 -4 45 -17 56
-31 58 -31 40 4 -8 16 -16 50 -18 75 -4 46 -4 47 22 42 61 -12 86 -16 75 -10
-7 3 -13 12 -13 19 0 7 -5 15 -11 17 -18 6 -14 138 4 138 5 0 29 -14 54 -30
42 -29 44 -29 37 -8 -22 68 -30 106 -28 133 1 17 2 40 3 53 1 23 1 23 31 5 17
-9 30 -21 30 -25 0 -4 5 -8 12 -8 6 0 20 -8 31 -18 15 -13 18 -13 13 -2 -3 8
-9 23 -12 32 -4 10 -10 18 -13 18 -4 0 -8 6 -9 13 -1 6 -5 28 -8 47 -6 43 -6
81 1 89 3 3 14 0 24 -6 11 -7 35 -19 55 -27 l36 -15 -23 32 c-30 40 -40 63
-43 102 -3 42 16 105 33 105 7 0 40 -11 72 -24 l59 -24 -30 42 c-31 45 -45
107 -34 152 7 25 8 26 26 9 11 -10 20 -15 20 -11 0 4 12 -1 27 -12 48 -33 52
-33 46 -12 -3 11 -9 20 -13 20 -11 0 -42 88 -35 100 3 5 1 10 -5 10 -8 0 -8 6
0 20 8 15 15 17 28 11 31 -15 93 -33 99 -27 3 2 -5 19 -17 35 -12 17 -18 31
-14 31 3 0 1 6 -5 14 -10 12 -24 136 -16 136 2 0 40 -15 84 -34 67 -28 79 -31
71 -16 -6 11 -14 21 -19 25 -30 18 -69 176 -45 175 5 0 36 -13 69 -29 33 -16
64 -26 69 -23 6 3 0 10 -11 15 -12 5 -27 24 -35 41 -13 32 -19 97 -8 106 3 3
52 88 109 190 57 102 105 187 107 189 2 2 18 -6 37 -17 l34 -20 18 32 c10 17
21 33 24 36 17 14 131 199 131 211 0 5 5 9 11 9 5 0 7 5 4 10 -3 5 -3 10 2 10
4 0 14 15 22 33 8 17 17 34 20 37 12 11 41 69 41 83 0 9 4 17 8 19 8 3 53 93
58 113 1 6 15 39 32 75 31 70 44 99 47 115 2 6 12 34 24 63 11 28 18 52 15 52
-4 0 1 11 10 25 9 14 14 25 11 25 -3 0 1 17 9 37 21 58 80 268 90 326 3 12 5
22 6 22 1 0 3 7 5 15 2 14 19 97 30 150 3 14 8 41 11 60 2 19 6 42 9 50 2 8 7
38 11 65 3 28 8 59 10 70 6 26 15 83 18 115 2 14 6 43 9 65 4 22 9 63 12 90
20 192 34 297 40 304 3 2 5 -16 6 -40 1 -77 16 -305 25 -389 3 -25 7 -74 9
-110 2 -36 4 -65 5 -65 2 0 7 -50 14 -135 3 -36 6 -65 6 -65 1 0 6 -35 15
-110 3 -27 8 -63 10 -80 3 -16 7 -43 10 -60 2 -16 7 -50 10 -75 3 -25 8 -56
10 -70 3 -14 8 -41 10 -60 3 -19 12 -69 20 -110 8 -41 20 -100 26 -130 6 -30
15 -66 19 -80 4 -14 6 -33 4 -42 -1 -10 2 -18 7 -18 5 0 9 -10 9 -22 0 -13 14
-72 31 -133 17 -60 32 -114 34 -120 1 -5 5 -17 8 -25 4 -8 8 -24 10 -35 1 -11
6 -26 10 -32 5 -7 10 -21 12 -31 7 -40 78 -224 124 -325 17 -37 31 -73 32 -80
1 -25 131 272 144 328 1 5 8 24 14 40 7 17 14 38 16 48 2 9 7 22 10 27 3 5 8
20 10 32 3 12 14 52 25 88 11 36 22 76 25 89 2 13 9 38 14 55 13 38 69 293 77
344 3 20 7 45 10 55 3 10 7 31 9 48 9 65 16 115 20 129 2 8 7 35 10 60 2 25 7
54 9 65 2 11 7 49 11 85 5 36 9 72 10 80 2 8 6 47 10 85 4 39 9 84 11 100 2
17 6 59 9 95 13 154 15 179 21 250 7 75 12 157 13 218 1 17 5 32 10 32 4 0 9
-39 10 -87 3 -165 20 -399 35 -468 2 -11 7 -40 10 -65 8 -56 23 -148 31 -178
9 -37 13 -55 25 -107 6 -27 14 -58 16 -67 2 -10 6 -27 8 -38 11 -46 99 -296
118 -334 11 -22 20 -42 19 -44 -4 -4 108 -230 142 -287 105 -176 293 -438 378
-527 l26 -28 23 20 c13 11 27 20 31 20 4 0 33 -46 64 -102 30 -57 71 -130 91
-163 56 -96 75 -143 71 -174 -6 -37 -25 -71 -51 -93 -21 -17 -20 -17 14 -6 19
6 41 15 48 21 6 5 12 6 12 1 0 -5 4 -4 8 2 4 7 18 14 32 15 23 4 25 1 22 -31
-3 -50 -22 -101 -44 -124 -11 -12 -24 -29 -29 -39 -9 -15 -8 -16 8 -8 10 5 47
21 83 34 l65 25 3 -33 c4 -44 -23 -136 -49 -164 l-20 -22 30 6 c16 3 41 9 55
15 15 5 26 7 26 4 0 -4 7 -1 15 6 17 14 19 8 16 -42 -2 -38 -31 -102 -56 -120
-26 -20 22 -5 65 19 27 15 51 25 53 23 16 -17 3 -140 -14 -140 -5 0 -9 -5 -9
-12 0 -6 -10 -23 -22 -37 -13 -14 -15 -19 -5 -12 9 7 17 11 17 8 0 -3 19 3 43
13 61 28 74 26 87 -16 18 -55 6 -121 -32 -168 -17 -22 -28 -37 -22 -34 42 23
106 48 113 44 16 -10 1 -110 -24 -154 -14 -25 -23 -47 -20 -50 3 -3 5 0 5 6 0
7 6 12 14 12 8 0 21 6 28 13 7 7 25 21 39 31 33 21 37 12 33 -64 -4 -66 -6
-78 -23 -108 -19 -35 -9 -36 44 -7 26 15 48 25 50 23 7 -7 13 -86 8 -110 -3
-15 -14 -36 -25 -48 l-21 -22 34 7 c19 4 45 9 58 12 24 6 24 5 17 -47 -4 -29
-14 -66 -22 -81 l-14 -29 50 30 c36 21 52 26 55 17 8 -20 -1 -70 -19 -105 -10
-19 -16 -35 -14 -37 2 -2 21 11 41 30 21 19 42 35 48 35 5 0 9 5 9 10 0 6 5
10 10 10 6 0 10 -7 10 -15 0 -8 4 -23 9 -33 11 -18 52 -130 55 -147 1 -5 6
-17 11 -25 5 -8 11 -23 12 -34 5 -32 32 -79 65 -118 18 -20 69 -81 113 -137
44 -55 83 -100 86 -100 11 -1 61 49 57 58 -2 5 -52 61 -113 126 -76 81 -120
136 -141 180 -18 35 -30 66 -28 68 3 2 -2 10 -11 17 -8 7 -15 16 -15 21 0 7
-45 111 -57 132 -2 4 -1 7 4 5 13 -3 153 23 153 29 0 6 -79 114 -90 123 -14
12 -150 210 -150 219 0 5 -8 15 -17 20 -10 6 -13 11 -8 11 7 0 6 3 0 8 -11 8
-118 181 -168 272 -87 157 -115 211 -208 400 -55 113 -107 217 -115 233 -8 15
-12 27 -7 27 4 0 3 4 -2 8 -13 9 -26 38 -176 412 l-118 294 39 24 c22 13 40
27 40 31 0 5 -18 46 -39 92 -40 85 -69 153 -72 167 0 4 -6 16 -12 27 -6 11
-12 25 -13 30 -2 6 -14 42 -29 80 -31 82 -96 310 -98 340 0 11 -4 25 -8 30 -4
6 -10 32 -13 58 -3 27 -8 52 -10 55 -2 4 -7 23 -10 42 -3 19 -7 44 -10 55 -2
11 -7 43 -10 70 -4 28 -9 64 -12 80 -9 57 -14 100 -20 149 -3 28 -8 54 -11 59
-9 14 61 -28 394 -235 78 -48 144 -88 147 -88 12 0 37 62 38 93 0 17 -10 66
-24 107 -14 41 -31 109 -37 150 -11 80 -17 111 -25 138 -7 23 -16 120 -22 233
-2 52 -7 102 -10 111 -3 10 -40 46 -82 80 -380 309 -437 400 -426 683 8 210 9
215 17 215 4 0 5 11 3 24 -2 13 -2 27 2 30 7 7 7 9 16 95 4 36 9 67 11 70 4 8
13 70 20 141 10 95 62 226 209 519 121 243 175 357 181 381 13 59 31 83 81
113 30 18 78 46 107 64 29 18 59 36 67 39 8 4 17 10 20 14 8 10 131 80 140 80
5 0 10 4 12 8 2 6 92 63 186 117 9 6 58 35 107 65 50 30 98 60 107 65 10 6 56
34 104 63 48 28 91 52 96 52 4 0 8 4 8 8 0 5 15 16 33 25 17 10 50 28 72 42
22 14 55 33 73 42 17 9 32 22 32 28 0 13 -108 158 -122 163 -4 2 -8 8 -8 14 0
6 -10 22 -22 37 -13 15 -34 42 -48 61 -14 18 -58 76 -98 128 -57 74 -70 98
-61 108 6 8 8 14 5 14 -4 0 -2 10 5 21 6 12 22 63 36 113 18 67 32 98 52 116
15 14 63 57 106 95 42 39 90 81 105 95 15 14 62 57 105 95 43 39 96 86 117
105 21 19 63 58 94 85 31 28 76 69 101 92 l45 41 -30 29 c-17 15 -58 53 -93
83 -102 90 -213 190 -278 250 -21 19 -70 64 -111 100 -40 36 -90 81 -111 100
-20 19 -52 49 -71 65 -32 28 -171 153 -224 200 -12 12 -53 48 -90 80 -36 33
-90 82 -118 108 -113 107 -175 157 -194 157 -4 0 -17 8 -28 18 -34 32 -369
188 -390 182 -4 -1 -10 2 -13 7 -6 8 -87 39 -123 48 -9 2 -26 9 -37 15 -12 6
-21 8 -21 4 0 -3 -7 0 -17 7 -9 8 -18 13 -20 12 -1 -2 -4 -3 -5 -2 -2 0 -10 2
-18 4 -8 1 -42 11 -75 21 -33 10 -63 18 -67 18 -3 1 -9 4 -13 8 -4 4 -13 4
-21 1 -8 -3 -14 0 -14 7 0 6 -4 9 -8 6 -4 -3 -24 -1 -43 3 -18 4 -50 3 -69 -2z
m1676 -1222 c29 -27 182 -166 204 -185 105 -92 130 -117 130 -127 0 -7 -3 -13
-8 -13 -4 0 -32 -23 -62 -51 -30 -27 -69 -62 -85 -77 -17 -15 -63 -56 -102
-92 -39 -36 -80 -73 -92 -82 l-21 -18 -1 93 c-1 100 -3 119 -14 217 -9 78 -13
105 -15 105 -1 0 -3 11 -5 25 -4 31 -14 79 -21 102 -3 10 -7 30 -10 44 -6 30
-59 188 -70 207 -7 10 105 -85 172 -148z m-5297 -290 c-31 -108 -46 -182 -65
-315 -3 -19 -7 -102 -10 -185 -3 -82 -6 -154 -7 -158 -1 -4 -20 9 -42 29 -50
45 -179 162 -209 189 -13 11 -42 38 -66 59 l-43 39 45 41 c24 23 82 75 128
116 112 100 185 166 240 217 24 23 46 41 47 40 1 -1 -7 -34 -18 -72z m5142
-1220 c53 -72 60 -81 77 -101 19 -20 10 -38 -30 -58 -39 -21 -59 -32 -115 -69
-24 -15 -47 -27 -53 -27 -5 0 -10 -4 -10 -10 0 -5 -4 -10 -10 -10 -8 0 -60
-31 -200 -119 -14 -8 -27 -16 -30 -16 -3 0 -27 -16 -55 -35 l-50 -34 26 34
c14 19 36 51 50 70 13 19 29 40 34 46 34 40 44 54 37 54 -4 0 -2 4 4 8 14 9
134 191 134 203 0 5 3 9 8 9 4 0 12 10 18 23 6 12 26 50 44 84 l33 61 22 -26
c12 -15 41 -54 66 -87z m-4984 -211 c-3 -3 5 -24 19 -45 13 -21 24 -43 24 -49
0 -5 5 -10 10 -10 6 0 10 -5 10 -11 0 -12 98 -161 112 -170 5 -3 9 -10 9 -15
0 -5 9 -19 19 -32 11 -12 20 -27 20 -32 0 -6 5 -10 10 -10 6 0 10 -7 10 -15 0
-8 9 -20 20 -27 11 -7 20 -18 20 -24 0 -5 8 -19 18 -30 10 -10 39 -47 65 -82
l48 -62 -38 22 c-21 12 -40 25 -43 28 -5 5 -31 20 -80 47 -14 8 -38 23 -55 33
-16 11 -43 27 -60 36 -16 9 -32 20 -35 23 -5 6 -28 20 -80 48 -14 8 -37 22
-51 31 -15 9 -56 34 -93 55 -36 21 -68 42 -71 46 -4 7 22 49 53 86 4 6 28 37
52 70 62 82 73 95 84 95 5 0 7 -3 3 -6z m2962 -1686 c0 -27 -2 -29 -8 -13 -5
11 -6 26 -4 33 8 21 13 13 12 -20z m-2 -53 c0 -8 -4 -12 -9 -9 -5 3 -6 10 -3
15 9 13 12 11 12 -6z m-4 -70 c-7 -21 -13 -19 -13 6 0 11 4 18 10 14 5 -3 7
-12 3 -20z m-10 -96 c-5 -5 -6 11 -3 34 4 41 5 41 8 8 2 -18 0 -37 -5 -42z
m-1023 -39 c0 -5 -4 -10 -10 -10 -5 0 -10 5 -10 10 0 6 5 10 10 10 6 0 10 -4
10 -10z m0 -65 c0 -8 -4 -15 -10 -15 -5 0 -7 7 -4 15 4 8 8 15 10 15 2 0 4 -7
4 -15z m-3 -57 c-3 -7 -5 -2 -5 12 0 14 2 19 5 13 2 -7 2 -19 0 -25z m1000
-748 c0 -22 -3 -40 -8 -40 -6 0 -6 50 0 78 4 13 7 -6 8 -38z"/>
<path d="M7950 10483 c-8 -3 -17 -9 -20 -12 -3 -4 -27 -18 -55 -33 -27 -14
-90 -49 -140 -78 -49 -29 -110 -64 -135 -78 -25 -14 -114 -65 -198 -114 -85
-48 -156 -88 -158 -88 -1 0 -20 -11 -40 -25 -20 -14 -40 -22 -45 -19 -5 3 -9
1 -9 -4 0 -5 -27 -23 -59 -41 l-59 -31 -89 41 c-104 49 -211 99 -308 144 -38
18 -109 51 -156 74 -48 22 -89 41 -90 41 -4 0 -5 -918 -1 -934 1 -5 10 -2 20
6 9 9 114 80 232 159 118 79 220 147 225 151 6 5 44 31 87 59 l76 50 146 -71
c79 -38 150 -70 155 -70 6 0 11 -4 11 -9 0 -7 18 -16 50 -25 3 0 43 -20 90
-43 314 -154 436 -210 442 -205 4 4 9 90 13 192 3 102 8 235 10 295 9 207 23
676 21 674 0 0 -8 -3 -16 -6z"/>
</g>
</svg>
