<svg width="25" height="25" viewBox="0 0 25 25" fill="none" xmlns="http://www.w3.org/2000/svg">
<path d="M6.94405 13.5152V11.5298H14.8859L11.4113 8.05521L12.821 6.64554L18.6979 12.5225L12.821 18.3994L11.4113 16.9898L14.8859 13.5152H6.94405ZM22.8277 12.5225C22.8277 15.1554 21.7818 17.6804 19.9201 19.5421C18.0583 21.4039 15.5333 22.4498 12.9004 22.4498C11.5967 22.4498 10.3058 22.193 9.10141 21.6941C7.89698 21.1952 6.80261 20.464 5.88077 19.5421C4.01905 17.6804 2.97314 15.1554 2.97314 12.5225C2.97314 9.88961 4.01905 7.36457 5.88077 5.50285C7.7425 3.64112 10.2675 2.59521 12.9004 2.59521C14.2041 2.59521 15.495 2.85199 16.6994 3.35088C17.9038 3.84978 18.9982 4.58101 19.9201 5.50285C20.8419 6.42468 21.5731 7.51905 22.072 8.72348C22.5709 9.92792 22.8277 11.2188 22.8277 12.5225ZM20.8422 12.5225C20.8422 10.4162 20.0055 8.39615 18.5161 6.90677C17.0267 5.41739 15.0067 4.58067 12.9004 4.58067C10.7941 4.58067 8.77408 5.41739 7.2847 6.90677C5.79532 8.39615 4.9586 10.4162 4.9586 12.5225C4.9586 14.6288 5.79532 16.6488 7.2847 18.1382C8.77408 19.6276 10.7941 20.4643 12.9004 20.4643C15.0067 20.4643 17.0267 19.6276 18.5161 18.1382C20.0055 16.6488 20.8422 14.6288 20.8422 12.5225Z" fill="white"/>
</svg>
