<svg width="76" height="76" viewBox="0 0 76 76" fill="none" xmlns="http://www.w3.org/2000/svg">
<path d="M62.9937 37.7967H66.1434C66.1434 37.7967 60.8939 48.2958 41.9954 47.2459C41.9954 47.2459 34.646 47.2459 26.2467 38.8466C26.2467 38.8466 27.2967 46.196 22.0471 44.0961C16.7975 41.9963 15.7476 38.8466 17.8474 31.4972L44.0953 35.6968" fill="#5C9E31"/>
<path d="M43.0464 41.9967L60.8949 26.248L58.7951 37.7971L43.0464 41.9967Z" fill="#B1CC33"/>
<path d="M10.4985 27.2977L16.798 31.4974L13.6483 25.1979M30.5981 43.311L27.2971 51.4457H24.1474M36.5889 46.3253L34.6465 51.4457H38.8462" stroke="black" stroke-width="2.09983" stroke-miterlimit="10" stroke-linecap="round" stroke-linejoin="round"/>
<path d="M62.9937 37.797H66.1434C66.1434 37.797 60.8939 48.2962 41.9954 47.2462C41.9954 47.2462 34.646 47.2462 26.2467 38.8469C26.2467 38.8469 27.2967 46.1963 22.0471 44.0965C16.7975 41.9967 15.7476 38.8469 17.8474 31.4976L44.0953 35.6972" stroke="black" stroke-width="2.09983" stroke-miterlimit="10" stroke-linecap="round" stroke-linejoin="round"/>
<path d="M60.8949 51.4458H56.6952L61.9448 25.198L43.0464 40.9467" stroke="black" stroke-width="2.09983" stroke-miterlimit="10" stroke-linecap="round" stroke-linejoin="round"/>
</svg>
