<svg width="76" height="76" viewBox="0 0 76 76" fill="none" xmlns="http://www.w3.org/2000/svg">
<path d="M62.9942 37.7967H66.1439C66.1439 37.7967 60.8943 48.2958 41.9959 47.2459C41.9959 47.2459 34.6465 47.2459 26.2472 38.8466C26.2472 38.8466 27.2971 46.196 22.0476 44.0961C16.798 41.9963 15.7481 38.8466 17.8479 31.4972L44.0957 35.6968" fill="#5C9E31"/>
<path d="M43.0459 41.9967L60.8944 26.248L58.7946 37.7971L43.0459 41.9967Z" fill="#B1CC33"/>
<path d="M10.499 27.2977L16.7985 31.4974L13.6488 25.1979M30.5985 43.311L27.2976 51.4457H24.1479M36.5893 46.3253L34.647 51.4457H38.8467" stroke="black" stroke-width="2.09983" stroke-miterlimit="10" stroke-linecap="round" stroke-linejoin="round"/>
<path d="M62.9942 37.797H66.1439C66.1439 37.797 60.8943 48.2962 41.9959 47.2462C41.9959 47.2462 34.6465 47.2462 26.2472 38.8469C26.2472 38.8469 27.2971 46.1963 22.0476 44.0965C16.798 41.9967 15.7481 38.8469 17.8479 31.4976L44.0957 35.6972" stroke="black" stroke-width="2.09983" stroke-miterlimit="10" stroke-linecap="round" stroke-linejoin="round"/>
<path d="M60.8954 51.4458H56.6957L61.9453 25.198L43.0469 40.9467" stroke="black" stroke-width="2.09983" stroke-miterlimit="10" stroke-linecap="round" stroke-linejoin="round"/>
</svg>
