<svg width="85" height="84" viewBox="0 0 85 84" fill="none" xmlns="http://www.w3.org/2000/svg">
<path d="M42.9424 10.5C50.6774 10.5 56.9424 16.765 56.9424 24.5C56.9424 32.235 50.6774 38.5 42.9424 38.5C35.2074 38.5 28.9424 32.235 28.9424 24.5C28.9424 16.765 35.2074 10.5 42.9424 10.5ZM56.9424 47.39C56.9424 51.1 55.9624 59.745 49.2774 69.405L46.4424 52.5L49.7324 45.92C47.5624 45.675 45.2874 45.5 42.9424 45.5C40.5974 45.5 38.3224 45.675 36.1524 45.92L39.4424 52.5L36.6074 69.405C29.9224 59.745 28.9424 51.1 28.9424 47.39C20.5774 49.84 14.9424 54.25 14.9424 59.5V73.5H70.9424V59.5C70.9424 54.25 65.3424 49.84 56.9424 47.39Z" fill="#094900"/>
</svg>
