<svg width="92" height="93" viewBox="0 0 92 93" fill="none" xmlns="http://www.w3.org/2000/svg">
<path d="M7.90241 65.6203H84.2849V73.2585H7.90241V65.6203ZM53.1209 30.4461C53.6147 29.2831 53.8132 28.016 53.6987 26.7577C53.5842 25.4993 53.1602 24.2888 52.4646 23.234C51.769 22.1792 50.8232 21.3129 49.7117 20.7121C48.6001 20.1113 47.3572 19.7948 46.0937 19.7908C44.8302 19.7948 43.5872 20.1113 42.4757 20.7121C41.3641 21.3129 40.4184 22.1792 39.7227 23.234C39.0271 24.2888 38.6031 25.4993 38.4886 26.7577C38.3741 28.016 38.5727 29.2831 39.0665 30.4461C24.1337 33.5396 12.7527 46.2573 11.7215 61.8012H80.4658C79.4346 46.2573 68.0536 33.5396 53.1209 30.4461Z" fill="#094900"/>
</svg>
