<svg width="93" height="93" viewBox="0 0 93 93" fill="none" xmlns="http://www.w3.org/2000/svg">
<path d="M46.769 23.6094C60.2773 23.6094 72.8804 28.7767 82.2602 38.1565L87.6604 32.7563C76.8409 21.9328 62.3167 15.9712 46.769 15.9712C31.2214 15.975 16.6972 21.9328 5.87766 32.7563L11.2779 38.1565C20.6577 28.7767 33.2608 23.6094 46.769 23.6094ZM68.4273 55.3349C56.6873 43.5949 36.8508 43.5949 25.1108 55.3349L30.511 60.7352C39.3217 51.9244 54.2163 51.9244 63.0271 60.7352L68.4273 55.3349Z" fill="#094900"/>
<path d="M78.9908 43.8242C61.5298 26.3555 32.0118 26.3555 14.5507 43.8242L19.951 49.2244C34.4904 34.685 59.0512 34.685 73.5906 49.2244L78.9908 43.8242Z" fill="#094900"/>
<path d="M46.7687 77.0773C50.9872 77.0773 54.407 73.6575 54.407 69.439C54.407 65.2205 50.9872 61.8008 46.7687 61.8008C42.5503 61.8008 39.1305 65.2205 39.1305 69.439C39.1305 73.6575 42.5503 77.0773 46.7687 77.0773Z" fill="#094900"/>
</svg>
